<?xml version="1.0" encoding="UTF-8"?>
<svg xmlns:xodm="http://www.corel.com/coreldraw/odm/2003" xmlns="http://www.w3.org/2000/svg" xmlns:xlink="http://www.w3.org/1999/xlink" version="1.1" id="Layer_1" x="0px" y="0px" viewBox="0 0 2500 2500" style="enable-background:new 0 0 2500 2500;" xml:space="preserve">
<style type="text/css">
	.st0{fill:none;}
	.st1{fill:#008CFF;}
	.st2{fill:#0CBFE8;}
</style>
<g id="Layer_x0020_1">
	<g id="_2806948113472">
		<rect y="0" class="st0" width="2500" height="2500"></rect>
		<g>
			<path class="st1" d="M982,963V54c0,0-318,147-318,458C664,824,982,963,982,963z"></path>
			<path class="st2" d="M982,54c0,0,318,147,318,458c0,312-318,451-318,451V54z"></path>
			<path class="st1" d="M1725,1390l437-230c0,0-151-94-301-15S1725,1390,1725,1390z"></path>
			<path class="st2" d="M2162,1160c0,0,10,168-140,247s-297-17-297-17L2162,1160z"></path>
			<g>
				<path d="M2183,1124c-8-4-192-94-348-11c-125,67-150,200-155,256l-58,31c-29-26-68-42-111-42s-82,16-110,41l-264-141      c3-11,5-23,5-35c0-67-49-124-115-142v-87c77-46,321-212,321-476c0-306-328-497-342-505L983,0l-23,13c-14,8-343,199-343,505      c0,264,244,430,321,476v87c-67,18-115,74-115,142c0,12,2,24,5,35l-264,141c-29-26-68-41-110-41c-88,0-160,66-160,148      c0,67,49,124,115,142v293c-66,18-115,75-115,142c0,81,72,148,160,148c47,0,89-19,118-48l257,137c-3,11-5,23-5,35      c0,81,72,147,160,147s160-66,160-147c0-12-2-24-5-35l257-137c29,30,71,48,118,48c88,0,160-66,160-148c0-67-49-124-115-142v-293      c66-18,115-75,115-142c0-12-2-23-4-34l57-31c34,15,100,39,175,39c46,0,95-9,143-34c156-83,164-276,164-284l1-25l-24-12l0,0      L2183,1124z M1556,1557c-12,9-28,14-44,14c-9,0-17-2-25-4c-7-2-13-6-19-10c-14-10-24-25-27-42c0-3-1-6-1-10c0-3,0-6,1-8      c3-24,21-44,45-53c8-3,17-5,26-5c10,0,19,2,28,5c25,10,44,33,44,61c0,4,0,7-1,11c-3,16-12,31-26,41l0,0H1556z M1583,2082      c0,36-32,66-71,66c-14,0-27-4-37-10c-20-12-34-32-34-56c0-1,0-1,0-2l0,0c0-7,2-14,4-20c5-12,12-22,23-30c9-7,20-11,32-13      c4-1,8-1,12-1c17,0,32,5,44,14C1572,2042,1583,2061,1583,2082L1583,2082z M1468,1940c-22,6-41,16-58,29l-271-144l0,0      c2-9,3-19,3-29c0-14-2-28-6-41l267-142c18,16,41,28,66,35v293l0,0L1468,1940z M982,2419c-36,0-65-24-71-56c-1-3-1-7-1-10      c0-28,18-51,44-61c8-3,17-5,27-5c9,0,18,2,27,5c26,10,44,33,44,61c0,3,0,7-1,10c-5,32-35,56-70,56H982z M826,1825l-271,144      c-17-13-37-23-58-29v-293c25-7,48-19,66-36l266,142c-4,13-7,27-7,42c0,10,1,20,3,29l0,0l0,0L826,1825z M524,2082      c0,24-14,45-34,56c-11,6-24,10-37,10c-39,0-71-29-71-66c0-21,11-40,27-52c12-9,28-14,44-14c4,0,8,0,12,1c12,2,23,7,32,13      c10,8,18,18,23,30c3,6,4,13,4,20C524,2081,524,2081,524,2082L524,2082z M381,1506c0-36,32-66,71-66c9,0,18,2,26,5      c23,8,41,28,44,52c1,3,1,6,1,9s0,6-1,10c-3,17-13,32-26,42c-5,4-11,7-18,9c-8,3-17,5-26,5c-17,0-32-5-44-14      C392,1546,381,1527,381,1506z M938,1172c12-9,28-14,44-14c17,0,32,5,44,14c14,10,24,25,26,42c1,3,1,6,1,10c0,21-11,40-27,52      c-5,4-11,7-18,9c-8,3-17,5-26,5s-18-2-26-5c-6-2-13-6-18-9c-17-12-27-31-27-52c0-3,0-6,1-10C915,1197,924,1182,938,1172z       M1053,1799c-1,20-11,38-27,49c-3,2-7,4-10,6c-10,5-22,8-34,8s-23-3-33-8c-4-2-8-4-11-6c-16-12-26-30-27-50c0-1,0-1,0-2      c0-6,1-12,3-17c4-14,13-26,25-35c8-6,17-10,27-12c6-1,12-2,18-2s13,1,18,2c10,2,18,6,26,12c12,9,20,20,24,34c2,6,3,12,3,18      c0,1,0,2,0,2l0,0l0,0L1053,1799z M1356,1471c-3,11-5,23-5,36c0,12,2,25,5,37l-269,143c-18-15-39-26-62-32v-289c25-7,48-19,66-35      l264,141l0,0L1356,1471z M704,520c0-217,207-374,277-421c71,47,277,203,277,421c0,181-145,313-233,376V553c0-23-20-41-44-41      s-44,18-44,41v343C849,833,704,702,704,520L704,520z M871,1331c18,17,41,29,66,35v289c-23,6-44,17-61,31l-269-144      c3-11,5-23,5-36c0-12-2-24-5-36l264-141l0,0V1331z M609,2109c2-8,3-17,3-26c0-16-3-31-8-45l262-140c19,19,44,33,71,40v274      c-25,7-48,19-67,36l-262-140l0,0L609,2109z M1092,2249c-19-17-41-29-67-36v-274c28-7,52-21,71-40l262,140c-5,14-8,29-8,45      c0,9,1,18,3,26l-262,140l0,0L1092,2249z M1998,1376c-59,31-125,26-175,13l88-47c21-11,28-36,16-56s-39-26-60-15l-88,47      c13-46,41-102,100-133c84-45,188-16,236,1c-7,47-32,144-117,189l0,0V1376z M1998,1376L1998,1376L1998,1376z"></path>
			</g>
		</g>
	</g>
</g>
</svg>
