<svg width="92" height="92" viewBox="0 0 92 92" fill="none" xmlns="http://www.w3.org/2000/svg">
<rect width="92" height="92" rx="46" fill="#0E0E0E"/>
<g clip-path="url(#clip0_273_1345)">
<path d="M28.3473 72.6448L36.0923 59.2328L43.8372 45.868L51.535 32.4561L52.81 30.3309L53.3767 32.4561L55.738 41.2872L53.0934 45.868L45.3484 59.2328L37.6507 72.6448H46.9069L54.6518 59.2328L58.666 52.2907L60.555 59.2328L64.1441 72.6448H72.4558L68.8666 59.2328L65.2775 45.868L64.333 42.4206L70.0945 32.4561H61.6884L61.405 31.4643L58.4771 20.5081L58.0993 19.0913H50.0237L49.8348 19.3747L42.2788 32.4561L34.5339 45.868L26.8361 59.2328L19.0912 72.6448H28.3473Z" fill="white"/>
</g>
<defs>
<clipPath id="clip0_273_1345">
<rect width="53.3646" height="53.5535" fill="white" transform="translate(19.0913 19.0913)"/>
</clipPath>
</defs>
</svg>
