<svg width="92" height="92" viewBox="0 0 92 92" fill="none" xmlns="http://www.w3.org/2000/svg">
<rect width="92" height="92" rx="46" fill="#F26822"/>
<path fill-rule="evenodd" clip-rule="evenodd" d="M88.4125 46.7196C88.4125 49.246 88.1878 51.72 87.7573 54.1226C88.1851 51.7198 88.4072 49.2458 88.4117 46.7189C88.412 46.5736 88.4115 46.4285 88.4102 46.2835C88.4117 46.4287 88.4125 46.5741 88.4125 46.7196ZM88.4102 46.2835C88.2842 31.5712 80.503 18.6838 68.8601 11.3823C80.4905 18.6853 88.2595 31.5714 88.4102 46.2835ZM46.7246 5.02958C54.8527 5.03047 62.443 7.35793 68.8601 11.3823C62.4448 7.35395 54.8545 5.02436 46.72 5.02403H46.7191H46.7183C31.0702 5.02403 17.4363 13.6441 10.3047 26.3943C7.98278 30.5423 6.35066 35.1264 5.56412 39.991C5.20877 42.1813 5.02405 44.4289 5.02405 46.7196C5.02405 62.3407 13.6139 75.9559 26.3286 83.0979C32.3583 86.4876 39.3147 88.4223 46.7194 88.4223C59.7833 88.4223 71.4521 82.3991 79.0989 72.9887C80.2832 71.5313 81.3711 69.9926 82.3527 68.3824H82.3507C83.9662 65.7307 85.294 62.8844 86.2908 59.887H86.2944C86.9162 58.0203 87.4061 56.0954 87.7573 54.1226L73.8172 37.4441V24.811L68.0657 30.5628L46.7246 5.02958ZM46.7238 5.02958C46.724 5.02958 46.7243 5.02958 46.7246 5.02958L46.72 5.02403V5.02503L46.7191 5.02403C31.0813 5.02435 17.4379 13.6514 10.3047 26.3943C7.98525 30.5412 6.35359 35.1249 5.56412 39.991C5.20998 42.1813 5.02726 44.4284 5.03018 46.7182C5.03595 51.3197 5.76971 55.746 7.14686 59.8863H19.6214V24.811L46.72 51.9094L68.0654 30.563L73.8172 37.4445V59.887H86.2908C86.9114 58.0206 87.4038 56.0957 87.7573 54.1226L73.8172 37.4445V37.4441L68.0657 30.5628L68.0654 30.563L46.7238 5.02958ZM46.7238 5.02958C46.7225 5.02958 46.7212 5.02958 46.72 5.02958V5.02503L46.7238 5.02958ZM82.3507 68.3824H64.7747V46.3113L52.948 58.138L46.7181 64.368L40.4875 58.138L28.6615 46.3113V68.3826H19.62L11.0882 68.3842C14.8147 74.4979 20.0729 79.581 26.3286 83.0979C32.3566 86.4839 39.3118 88.4149 46.7183 88.4149C59.7892 88.4149 71.4545 82.4006 79.0989 72.9887C80.2825 71.5315 81.3696 69.9928 82.3507 68.3824Z" fill="white"/>
</svg>
