<svg width="92" height="92" viewBox="0 0 92 92" fill="none" xmlns="http://www.w3.org/2000/svg">
<rect width="92" height="92" rx="46" fill="#EDEFF0"/>
<g clip-path="url(#clip0_273_1551)">
<path d="M46.0642 57.9499C45.8696 58.0161 45.7587 57.8468 45.6264 57.7689C39.14 53.9407 32.6608 50.1099 26.1887 46.2764C26.1261 46.2448 26.061 46.2181 25.9941 46.1967V46.111L26.109 46.0449C26.272 46.0021 26.4324 45.9501 26.5896 45.8892L41.8747 38.9346C43.2368 38.3138 44.5989 37.7028 45.9611 37.0879H46.0584C46.0584 37.2825 46.0584 37.4557 46.0584 37.6405C46.0636 44.411 46.0655 51.1808 46.0642 57.9499Z" fill="#393939"/>
<path d="M46.0739 37.0926H45.9766C45.9766 36.898 45.996 36.7034 45.996 36.4991C45.996 28.8945 45.996 21.2893 45.996 13.6834C45.9737 13.488 45.9868 13.2903 46.0349 13.0996H46.0758C46.8756 14.2808 47.5722 15.5261 48.3078 16.7462C54.1351 26.4122 59.9592 36.0769 65.78 45.7402C65.8365 45.8356 65.8812 45.9348 65.9318 46.0399C65.767 46.0047 65.605 45.9572 65.4473 45.8978C64.379 45.4152 63.3068 44.9249 62.2482 44.4326C60.5903 43.6737 58.9317 42.916 57.2725 42.1597L49.2788 38.5384C48.2144 38.048 47.1441 37.5713 46.0739 37.0926Z" fill="#343434"/>
<path d="M46.0414 13.0896C45.9932 13.2802 45.9801 13.478 46.0024 13.6733C46.0024 21.2779 46.0024 28.8832 46.0024 36.489C46.0024 36.6836 45.9908 36.8782 45.983 37.0826C44.6208 37.6975 43.2587 38.3085 41.8966 38.9292L26.6115 45.8839C26.4544 45.9448 26.2939 45.9967 26.1309 46.0395C26.5726 45.1211 27.1466 44.2882 27.6701 43.4087C33.7348 33.3276 39.8041 23.2485 45.8779 13.1713C45.918 13.1155 45.9616 13.0622 46.0083 13.0117L46.0414 13.0896Z" fill="#8C8C8C"/>
<path d="M46.0742 37.0928C47.1444 37.5715 48.2147 38.0482 49.283 38.5308L57.2768 42.1521C58.9373 42.9071 60.5958 43.6647 62.2524 44.4249C63.3188 44.9134 64.3929 45.4076 65.4515 45.8902C65.6092 45.9496 65.7712 45.997 65.936 46.0323C66.1306 46.2755 65.8426 46.2852 65.7551 46.3378C64.0952 47.3302 62.4276 48.309 60.7638 49.2936C55.9886 52.119 51.2146 54.9439 46.442 57.768C46.3213 57.8381 46.1909 57.8906 46.0645 57.9509C46.0645 51.1831 46.0645 44.4146 46.0645 37.6454C46.0664 37.4605 46.0722 37.2776 46.0742 37.0928Z" fill="#141414"/>
<path d="M45.9958 61.7944L58.4983 54.4253C60.8852 53.0164 63.2709 51.6063 65.6553 50.1949L65.8713 50.0762C65.8927 50.2708 65.7584 50.3739 65.6767 50.4868C60.2282 58.1679 54.7796 65.8464 49.3311 73.5224C48.2998 74.9779 47.2704 76.4412 46.2293 77.8851C46.1749 77.961 46.0912 78.3171 45.9238 77.9396C46.0561 77.8267 45.9978 77.6749 45.9978 77.5504C45.9991 72.2964 45.9984 67.0444 45.9958 61.7944Z" fill="#3D3D3C"/>
<path d="M45.9947 61.7954C45.9947 67.0454 45.9947 72.2942 45.9947 77.5416C45.9947 77.6759 46.0531 77.8277 45.9208 77.9308C45.6425 77.7635 45.5219 77.4638 45.337 77.2167C39.0193 68.3174 32.7049 59.4168 26.3937 50.515C26.3139 50.4021 26.2399 50.2815 26.1582 50.1569C26.3217 50.0616 26.4092 50.192 26.5046 50.2484C32.8936 54.0208 39.2814 57.7966 45.6678 61.5755C45.7865 61.6494 45.8877 61.7253 45.9947 61.7954Z" fill="#8C8C8C"/>
<path d="M46.0428 13.0894L45.9961 13.0174C46.0817 12.963 46.07 13.0427 46.0837 13.0836L46.0428 13.0894Z" fill="#393939"/>
</g>
<defs>
<clipPath id="clip0_273_1551">
<rect width="40" height="65.1119" fill="white" transform="translate(26 13)"/>
</clipPath>
</defs>
</svg>
