<svg width="34.218" height="30.653" viewBox="0 0 34.218 30.653" xmlns="http://www.w3.org/2000/svg">
    <defs>
        <linearGradient x1="15.004%" y1="85.399%" x2="88.034%" y2="11.52%" id="8vhvjzfrsa">
            <stop stop-color="#9945FF" offset="0%"/>
            <stop stop-color="#8752F3" offset="30%"/>
            <stop stop-color="#5497D5" offset="50%"/>
            <stop stop-color="#43B4CA" offset="60%"/>
            <stop stop-color="#28E0B9" offset="72%"/>
            <stop stop-color="#19FB9B" offset="97.916%"/>
        </linearGradient>
    </defs>
    <path d="m963.039 530.953-5.65 6.268a1.269 1.269 0 0 1-.956.432h-26.777a.64.64 0 0 1-.36-.11.674.674 0 0 1-.241-.297.701.701 0 0 1 .12-.734l5.642-6.268c.122-.136.27-.245.435-.319a1.27 1.27 0 0 1 .522-.113h26.777a.637.637 0 0 1 .364.106.67.67 0 0 1 .247.297.696.696 0 0 1-.123.738zm-5.638-12.115a1.322 1.322 0 0 0-.435-.318 1.283 1.283 0 0 0-.521-.114h-26.788a.64.64 0 0 0-.36.111.674.674 0 0 0-.242.297.7.7 0 0 0 .12.733l5.645 6.269c.122.135.27.243.435.317.164.075.342.114.521.115h26.788c.128-.001.252-.04.359-.113a.673.673 0 0 0 .24-.297.698.698 0 0 0-.12-.731l-5.642-6.27zm-27.745-3.996h26.778c.18 0 .357-.04.521-.113.165-.075.313-.183.435-.32l5.649-6.267a.696.696 0 0 0 .123-.739.67.67 0 0 0-.247-.297.637.637 0 0 0-.364-.106h-26.777c-.18 0-.357.039-.522.113a1.308 1.308 0 0 0-.435.32l-5.642 6.267a.701.701 0 0 0-.12.734.674.674 0 0 0 .242.296.64.64 0 0 0 .36.112z" transform="translate(-929 -507)" fill="url(#8vhvjzfrsa)" fill-rule="nonzero"/>
</svg>
