<svg width="92" height="92" viewBox="0 0 92 92" fill="none" xmlns="http://www.w3.org/2000/svg">
<rect width="92" height="92" rx="46" fill="#2E3148"/>
<path d="M46.1402 9.04306C41.6132 9.04306 37.9424 25.4628 37.9424 45.7177C37.9424 65.9727 41.6132 82.3924 46.1402 82.3924C50.6672 82.3924 54.338 65.9727 54.338 45.7177C54.338 25.4628 50.6672 9.04306 46.1402 9.04306ZM46.7062 80.3227C46.1885 81.0132 45.6708 80.4951 45.6708 80.4951C43.586 78.0795 42.5435 73.5917 42.5435 73.5917C38.8969 61.856 39.7649 36.6584 39.7649 36.6584C41.4786 16.6541 44.5962 11.9284 45.6571 10.8793C45.7654 10.7722 45.908 10.7068 46.0598 10.6945C46.2117 10.6822 46.363 10.7239 46.4871 10.8122C48.0264 11.9029 49.3174 16.4645 49.3174 16.4645C53.1298 30.6165 52.7846 43.9057 52.7846 43.9057C53.1298 55.4689 50.8742 68.4128 50.8742 68.4128C49.1379 78.2499 46.7062 80.3227 46.7062 80.3227Z" fill="#6F7390"/>
<path d="M77.9547 27.4665C75.7008 23.5384 59.633 28.526 42.0554 38.6054C24.4778 48.6847 12.0788 60.0406 14.331 63.967C16.5833 67.8935 32.6528 62.9075 50.2304 52.8282C67.8079 42.7489 80.207 31.3929 77.9547 27.4665ZM16.4105 63.4282C15.5476 63.3195 15.7425 62.6103 15.7425 62.6103C16.801 59.6004 20.1695 56.4627 20.1695 56.4627C28.5381 47.4591 50.8279 35.673 50.8279 35.673C69.0305 27.2041 74.6845 27.5614 76.1188 27.9563C76.266 27.9974 76.394 28.0893 76.4799 28.2157C76.5659 28.3421 76.6044 28.4948 76.5885 28.6468C76.4161 30.5257 73.0935 33.9143 73.0935 33.9143C62.7223 44.2677 51.0228 50.5826 51.0228 50.5826C41.1646 56.6386 28.8146 61.1206 28.8146 61.1206C19.4173 64.5069 16.4108 63.4282 16.4108 63.4282H16.4105Z" fill="#6F7390"/>
<path d="M77.8732 64.0974C80.1446 60.1796 67.7767 48.7717 50.2609 38.6166C32.745 28.4614 16.6792 23.412 14.4099 27.3365C12.1405 31.2609 24.5063 42.6621 42.0322 52.8173C59.5581 62.9724 75.6038 68.0221 77.8732 64.0974ZM15.915 28.8503C15.5794 28.0548 16.2877 27.8632 16.2877 27.8632C19.4234 27.271 23.8279 28.6204 23.8279 28.6204C35.8106 31.3491 57.1774 44.7332 57.1774 44.7332C73.6283 56.2448 76.1513 61.3153 76.5295 62.7547C76.5679 62.9023 76.553 63.0588 76.4873 63.1964C76.4216 63.3341 76.3094 63.4442 76.1705 63.5072C74.455 64.2926 69.8606 63.1224 69.8606 63.1224C55.6998 59.3254 44.3747 52.3687 44.3747 52.3687C34.1991 46.8804 24.1372 38.4357 24.1372 38.4357C16.4917 31.9983 15.9173 28.859 15.9173 28.859L15.915 28.8503Z" fill="#6F7390"/>
<path d="M46.0563 49.9462C48.4392 49.9462 50.371 48.0144 50.371 45.6315C50.371 43.2486 48.4392 41.3169 46.0563 41.3169C43.6734 41.3169 41.7417 43.2486 41.7417 45.6315C41.7417 48.0144 43.6734 49.9462 46.0563 49.9462Z" fill="#B7B9C8"/>
<path d="M63.7472 31.6513C65.1293 31.6513 66.2497 30.4923 66.2497 29.0625C66.2497 27.6328 65.1293 26.4738 63.7472 26.4738C62.3651 26.4738 61.2446 27.6328 61.2446 29.0625C61.2446 30.4923 62.3651 31.6513 63.7472 31.6513Z" fill="#B7B9C8"/>
<path d="M22.6688 40.454C24.0509 40.454 25.1714 39.2949 25.1714 37.8652C25.1714 36.4354 24.0509 35.2764 22.6688 35.2764C21.2867 35.2764 20.1663 36.4354 20.1663 37.8652C20.1663 39.2949 21.2867 40.454 22.6688 40.454Z" fill="#B7B9C8"/>
<path d="M40.963 72.2097C42.3451 72.2097 43.4656 71.0507 43.4656 69.6209C43.4656 68.1912 42.3451 67.0322 40.963 67.0322C39.5809 67.0322 38.4604 68.1912 38.4604 69.6209C38.4604 71.0507 39.5809 72.2097 40.963 72.2097Z" fill="#B7B9C8"/>
</svg>
