<svg width="92" height="92" viewBox="0 0 92 92" fill="none" xmlns="http://www.w3.org/2000/svg">
<rect width="92" height="92" rx="46" fill="#0E0E0E"/>
<path d="M69.4521 26.2311L61.6873 30.1872L24.1918 49.2855C24.0651 48.3184 24.0013 47.3442 24.0009 46.3689C24.006 42.4774 25.0277 38.6548 26.9647 35.2798C28.9017 31.9047 31.6869 29.0942 35.0443 27.1267C38.4018 25.1592 42.215 24.103 46.1062 24.0627C49.9974 24.0223 53.8317 24.9993 57.2292 26.8968L61.6736 24.6323L62.3366 24.294C58.2652 21.3389 53.456 19.567 48.4406 19.1742C43.4252 18.7815 38.3988 19.783 33.917 22.0682C29.4352 24.3535 25.6725 27.8334 23.0448 32.1233C20.417 36.4133 19.0266 41.3463 19.0271 46.3771C19.0271 47.0719 19.0535 47.764 19.1062 48.4533C19.1801 49.4295 18.9636 50.4058 18.484 51.2593C18.0043 52.1127 17.283 52.8053 16.4107 53.2497L14.067 54.4447V60.0187L20.967 56.5019L23.2015 55.3614L25.4032 54.2401L64.9312 34.0996L69.373 31.8378L78.5538 27.1587V21.5875L69.4521 26.2311Z" fill="white"/>
<path d="M78.5538 32.7361L27.6486 58.6552L23.2069 60.9224L14.067 65.5797V71.1482L23.1442 66.5237L30.909 62.5676L68.4426 43.442C68.5695 44.4155 68.6333 45.3961 68.6336 46.3777C68.6312 50.2737 67.6098 54.1012 65.6709 57.4804C63.732 60.8596 60.9429 63.6729 57.5806 65.641C54.2184 67.6091 50.3998 68.6636 46.504 68.6997C42.6082 68.7359 38.7708 67.7525 35.3725 65.8471L35.0997 65.9917L30.2815 68.4472C34.3519 71.4023 39.1601 73.1747 44.1748 73.5685C49.1894 73.9622 54.2153 72.962 58.6971 70.6783C63.1789 68.3946 66.9422 64.9164 69.571 60.628C72.1999 56.3395 73.5921 51.4078 73.5937 46.3777C73.5937 45.6765 73.5664 44.9754 73.5146 44.2824C73.4408 43.3065 73.6571 42.3306 74.1362 41.4772C74.6153 40.6239 75.3359 39.9311 76.2074 39.486L78.5538 38.291V32.7361Z" fill="white"/>
</svg>
