<svg width="92" height="92" viewBox="0 0 92 92" fill="none" xmlns="http://www.w3.org/2000/svg">
<rect width="92" height="92" rx="46" fill="#E6007A"/>
<g clip-path="url(#clip0_273_1470)">
<path d="M46.0168 29.0939C51.7204 29.0939 56.344 26.4048 56.344 23.0876C56.344 19.7705 51.7204 17.0814 46.0168 17.0814C40.3132 17.0814 35.6896 19.7705 35.6896 23.0876C35.6896 26.4048 40.3132 29.0939 46.0168 29.0939Z" fill="white"/>
<path d="M46.0168 74.3524C51.7204 74.3524 56.344 71.6633 56.344 68.3462C56.344 65.029 51.7204 62.3399 46.0168 62.3399C40.3132 62.3399 35.6896 65.029 35.6896 68.3462C35.6896 71.6633 40.3132 74.3524 46.0168 74.3524Z" fill="white"/>
<path d="M31.6226 37.4085C34.4744 32.4692 34.4558 27.1197 31.5812 25.46C28.7066 23.8003 24.0645 26.4589 21.2127 31.3982C18.3609 36.3375 18.3794 41.687 21.254 43.3467C24.1286 45.0064 28.7708 42.3478 31.6226 37.4085Z" fill="white"/>
<path d="M70.814 60.0337C73.6658 55.0944 73.6489 49.7458 70.7762 48.0872C67.9035 46.4286 63.2629 49.0882 60.4112 54.0275C57.5594 58.9667 57.5763 64.3154 60.449 65.974C63.3217 67.6325 67.9622 64.973 70.814 60.0337Z" fill="white"/>
<path d="M31.5851 65.9745C34.4598 64.3148 34.4783 58.9653 31.6265 54.026C28.7747 49.0867 24.1325 46.4281 21.2579 48.0878C18.3833 49.7475 18.3648 55.097 21.2166 60.0363C24.0684 64.9756 28.7105 67.6342 31.5851 65.9745Z" fill="white"/>
<path d="M70.7762 43.3493C73.6489 41.6907 73.6658 36.342 70.814 31.4028C67.9622 26.4635 63.3217 23.8039 60.449 25.4625C57.5763 27.1211 57.5594 32.4697 60.4112 37.409C63.2629 42.3483 67.9035 45.0079 70.7762 43.3493Z" fill="white"/>
</g>
<defs>
<clipPath id="clip0_273_1470">
<rect width="53.8534" height="57.2728" fill="white" transform="translate(19.0909 17.0814)"/>
</clipPath>
</defs>
</svg>
