<svg width="92" height="92" viewBox="0 0 92 92" fill="none" xmlns="http://www.w3.org/2000/svg">
<rect width="92" height="92" rx="46" fill="#3E5C98"/>
<path fill-rule="evenodd" clip-rule="evenodd" d="M40.785 65.8821L45.5005 49.9812L52.8478 47.8976L54.383 42.6339L47.1454 44.8271L54.8217 18.7276V18.3109C54.816 18.1439 54.7775 17.9795 54.7083 17.8273C54.639 17.6752 54.5405 17.5381 54.4183 17.4241C54.2961 17.31 54.1526 17.2211 53.996 17.1626C53.8394 17.104 53.6728 17.0769 53.5057 17.0827H43.7459C43.3764 17.0713 43.0137 17.1839 42.7156 17.4025C42.4175 17.6211 42.2011 17.9332 42.1009 18.289L32.999 49.2136L25.7614 51.4068L24.1165 56.4512L31.3541 54.258L24.8841 76.2999H63.4849C63.8553 76.3153 64.2198 76.2042 64.5188 75.985C64.8177 75.7658 65.0332 75.4515 65.1299 75.0937L67.3231 67.527V67.1103C67.3174 66.9432 67.2789 66.7789 67.2097 66.6267C67.1405 66.4745 67.0419 66.3375 66.9197 66.2234C66.7975 66.1094 66.654 66.0205 66.4974 65.9619C66.3408 65.9034 66.1742 65.8762 66.0072 65.8821H40.785Z" fill="white"/>
</svg>
