<svg width="92" height="92" viewBox="0 0 92 92" fill="none" xmlns="http://www.w3.org/2000/svg">
<rect width="92" height="92" rx="46" fill="#EBB144"/>
<path d="M48.9465 34.6585C48.6092 34.4087 48.222 34.5311 47.8623 34.5311C42.6636 34.5311 37.4624 34.4986 32.2612 34.5486C31.2819 34.5486 31.0646 34.2563 31.0871 33.332C31.147 30.7139 31.1395 28.0859 31.0871 25.4703C31.0721 24.6684 31.3369 24.471 32.0863 24.4935C35.0117 24.5335 37.942 24.4935 40.8674 24.526C41.6168 24.5385 41.8966 24.3536 41.8667 23.5492C41.8117 21.3683 41.8667 19.1824 41.8342 16.999C41.8342 16.337 41.9566 16.0647 42.6985 16.0772C45.2517 16.1238 47.8048 16.1238 50.3579 16.0772C51.0924 16.0622 51.2373 16.327 51.2248 16.9915C51.1873 19.02 51.2098 21.0485 51.2248 23.077C51.2248 24.3061 51.2248 24.3061 52.4089 24.3061H62.0318C62.4765 24.3061 62.8862 24.2437 62.8987 24.9332C62.9487 27.6462 63.1685 30.3567 62.8538 33.0697C62.7629 34.1949 62.3266 35.2646 61.6047 36.1325C56.0562 42.5877 50.93 49.3927 45.3991 55.868C44.9569 56.3851 44.5047 56.8922 44.0476 57.4143C44.3848 57.7316 44.7421 57.5967 45.0618 57.5992C50.5753 57.5992 56.0887 57.6217 61.5997 57.5992C62.4341 57.5992 62.7239 57.799 62.7039 58.6809C62.6439 61.2723 62.6439 63.8621 62.7039 66.4502C62.7239 67.3545 62.5415 67.6818 61.5447 67.6568C58.3695 67.5844 55.1919 67.6568 52.0167 67.6118C51.2423 67.6118 51.1024 67.8367 51.1598 68.5711C51.3422 70.8195 51.4096 73.0553 51.572 75.2962C51.612 75.8683 51.4696 76.0606 50.8775 76.0456C48.1079 76.0206 45.3366 76.0206 42.5637 76.0456C41.9516 76.0456 41.8467 75.7958 41.8492 75.2687C41.8692 73.0828 41.8242 70.8994 41.8767 68.716C41.8942 67.9141 41.6268 67.7167 40.8774 67.7317C37.6298 67.7692 34.3997 67.7317 31.1595 67.7617C30.465 67.7617 30.2602 67.5594 30.2477 66.8624C30.2027 64.3068 30.0179 61.7561 30.2852 59.1955C30.4025 57.9173 30.9131 56.7068 31.7466 55.7306C37.3875 48.9855 42.7135 41.9907 48.4843 35.3555C48.6667 35.1457 48.909 34.9758 48.9465 34.6585Z" fill="white"/>
</svg>
