<svg width="92" height="92" viewBox="0 0 92 92" fill="none" xmlns="http://www.w3.org/2000/svg">
<rect width="92" height="92" rx="46" fill="#23292F"/>
<path d="M65.2548 23.11H73.2421L56.6199 39.5681C50.6003 45.5251 40.8408 45.5251 34.8168 39.5681L18.1882 23.11H26.182L38.8105 35.6123C40.6504 37.4257 43.1301 38.4423 45.7135 38.4423C48.2969 38.4423 50.7766 37.4257 52.6166 35.6123L65.2548 23.11Z" fill="white"/>
<path d="M26.0788 68.8735H18.0862L34.8163 52.314C40.8358 46.357 50.5954 46.357 56.6193 52.314L73.3494 68.8735H65.3621L52.6257 56.2698C50.7857 54.4564 48.3061 53.4398 45.7226 53.4398C43.1392 53.4398 40.6596 54.4564 38.8196 56.2698L26.0788 68.8735Z" fill="white"/>
</svg>
