<svg width="92" height="92" viewBox="0 0 92 92" fill="none" xmlns="http://www.w3.org/2000/svg">
<rect width="92" height="92" rx="46" fill="#E84142"/>
<path fill-rule="evenodd" clip-rule="evenodd" d="M24.729 66.3162H33.2951C35.3119 66.3162 36.3203 66.3162 37.2203 66.067C38.207 65.7737 39.107 65.2535 39.8552 64.5377C40.5423 63.8831 41.0381 63.0154 42.0162 61.3037L42.0167 61.3027L42.0455 61.2524L53.1554 41.6132C54.1421 39.8892 54.6301 39.0217 54.8469 38.1109C55.0854 37.1242 55.0854 36.0832 54.8469 35.0965C54.6317 34.1926 54.1388 33.3313 53.1667 31.6329L53.1446 31.5942L48.7964 24.004C47.8965 22.4209 47.4411 21.6294 46.8664 21.3366C46.2483 21.0222 45.511 21.0222 44.8929 21.3366C44.3182 21.6294 43.8629 22.4209 42.9629 24.004L21.8122 61.2849C20.9231 62.8463 20.4785 63.6273 20.5111 64.2667C20.5544 64.9609 20.9123 65.5897 21.4978 65.9694C22.0399 66.3162 22.929 66.3162 24.729 66.3162ZM67.2013 66.3162H54.9272C53.1164 66.3162 52.2056 66.3162 51.6742 65.9694C51.0887 65.5897 50.7309 64.9503 50.6875 64.2562C50.6552 63.6215 51.1033 62.8479 52 61.3001L52.0002 61.2997L52.0212 61.2635L58.1476 50.7457C59.0476 49.1951 59.5029 48.4253 60.0668 48.1325C60.6846 47.818 61.4116 47.818 62.0293 48.1325C62.5891 48.4175 63.025 49.1547 63.8882 50.6142L63.8894 50.6164L63.9594 50.7349L70.1076 61.2526C70.1376 61.3045 70.167 61.3554 70.1964 61.4055L70.1964 61.4056C71.0486 62.8762 71.4835 63.6267 71.4524 64.2456C71.4194 64.9391 71.0509 65.5791 70.4656 65.9588C69.9231 66.3162 69.0121 66.3162 67.2013 66.3162Z" fill="white"/>
</svg>
