<svg width="92" height="92" viewBox="0 0 92 92" fill="none" xmlns="http://www.w3.org/2000/svg">
<rect width="92" height="92" rx="46" fill="black"/>
<g clip-path="url(#clip0_273_1390)">
<path d="M60.878 25.5168L51.0438 40.1112C50.3638 41.105 51.6715 42.3082 52.6131 41.4712L62.2904 33.0494C62.5519 32.8401 62.9181 32.9971 62.9181 33.3632V59.675C62.9181 60.0411 62.4473 60.1981 62.2381 59.9365L32.9447 24.8891C32.0031 23.7383 30.6431 23.1105 29.1261 23.1105H28.0799C25.3598 23.1105 23.1105 25.3598 23.1105 28.1323V65.1675C23.1105 67.9399 25.3598 70.1892 28.1322 70.1892C29.8584 70.1892 31.48 69.2999 32.4216 67.783L42.2558 53.1886C42.9358 52.1947 41.6281 50.9916 40.6865 51.8285L31.0092 60.1981C30.7477 60.4073 30.3815 60.2504 30.3815 59.8842V33.6248C30.3815 33.2586 30.8523 33.1017 31.0615 33.3632L60.3549 68.4107C61.2965 69.5615 62.7089 70.1892 64.1735 70.1892H65.2197C67.9921 70.1892 70.2414 67.9399 70.2414 65.1675V28.1323C70.2414 25.3598 67.9921 23.1105 65.2197 23.1105C63.4412 23.1105 61.8196 23.9998 60.878 25.5168Z" fill="white"/>
</g>
<defs>
<clipPath id="clip0_273_1390">
<rect width="47.131" height="47.0787" fill="white" transform="translate(23.1105 23.1105)"/>
</clipPath>
</defs>
</svg>
