<svg width="92" height="92" viewBox="0 0 92 92" fill="none" xmlns="http://www.w3.org/2000/svg">
<rect width="92" height="92" rx="46" fill="#F6931A"/>
<path d="M62.8566 47.6518C63.7171 48.1075 64.5365 48.6368 65.3058 49.2337C67.9913 51.3631 69.1266 54.1321 68.6944 57.5264C68.4084 60.0436 67.5188 62.4546 66.1011 64.5542C64.3578 67.0869 61.8827 68.4556 58.8976 68.9685C56.4224 69.3949 53.9502 69.2566 51.4808 68.9253C50.5818 68.8071 49.6886 68.6544 48.7982 68.4902C48.5101 68.4354 48.4207 68.5276 48.3545 68.8014C47.6745 71.5733 46.9685 74.3394 46.2943 77.1142C46.1992 77.5061 46.0839 77.5753 45.6892 77.4686C44.1303 77.048 42.5571 76.6647 40.9867 76.2873C40.6986 76.2239 40.6669 76.1432 40.7331 75.8723C41.4304 73.1177 42.1076 70.3573 42.8078 67.6027C42.8856 67.2915 42.8567 67.1619 42.5196 67.0812C41.3037 66.7815 40.0916 66.4645 38.8833 66.1303C38.575 66.0439 38.4856 66.1303 38.4136 66.4184C37.7336 69.1904 37.0305 71.9594 36.3534 74.7313C36.2756 75.0425 36.1863 75.0944 35.878 75.0194C34.2913 74.6084 32.6979 74.2117 31.0977 73.8294C30.8096 73.7603 30.7692 73.6393 30.8355 73.3655C31.5386 70.585 32.2186 67.7986 32.9274 65.0094C33.0196 64.6493 32.9447 64.5311 32.5932 64.4331C29.1355 63.5687 25.7037 62.7043 22.2575 61.8399C22.0126 61.7794 21.9377 61.7189 22.053 61.4595C22.8943 59.5386 23.7251 57.6177 24.5454 55.6967C24.6491 55.4518 24.7788 55.4576 24.9978 55.5181C26.1849 55.8293 27.3692 56.152 28.5649 56.4171C30.0575 56.7484 30.9392 56.1635 31.3081 54.6882C32.4433 50.1337 33.5805 45.5801 34.7196 41.0274C35.5841 37.5698 36.4485 34.1121 37.3129 30.6544C37.6616 29.254 36.9268 27.9055 35.489 27.3523C34.369 26.9707 33.2256 26.6618 32.0659 26.4273C31.7259 26.3438 31.3887 26.2545 31.0458 26.1911C30.8585 26.1565 30.8326 26.0844 30.8758 25.9029C31.3282 24.1078 31.7806 22.3127 32.2157 20.5118C32.2906 20.1891 32.4837 20.2928 32.6594 20.336C34.0252 20.6732 35.3852 21.0247 36.7539 21.3589C38.8228 21.8603 40.8743 22.4395 42.9547 22.9034C43.2976 22.9812 43.4273 22.9379 43.5166 22.5749C44.1793 19.8404 44.8709 17.1002 45.5336 14.3802C45.6171 14.0373 45.7209 13.9393 46.0811 14.0344C47.6428 14.4493 49.2131 14.8383 50.7835 15.2129C51.1149 15.2936 51.1466 15.4203 51.0716 15.7287C50.3859 18.4285 49.7203 21.1342 49.0374 23.8341C48.9653 24.1222 48.9942 24.2058 49.2996 24.2749C50.5213 24.5429 51.743 24.831 52.9561 25.1393C53.3048 25.2315 53.4027 25.1192 53.4805 24.808C54.126 22.1686 54.7887 19.535 55.4312 16.8956C55.5205 16.5326 55.6214 16.4029 56.0363 16.5153C57.5808 16.9331 59.1396 17.3134 60.6956 17.6851C61.001 17.7572 61.0615 17.858 60.9837 18.1663C60.2864 20.9209 59.615 23.6813 58.9091 26.4331C58.8198 26.7846 58.9091 26.8884 59.2203 27.0094C61.3825 27.7137 63.4408 28.7041 65.3404 29.9542C67.124 31.173 68.6022 32.6598 69.4032 34.7143C70.2676 36.9646 70.0976 39.2294 69.4234 41.4827C68.4725 44.6734 66.3816 46.6904 63.1505 47.5337C63.041 47.5509 62.969 47.5913 62.8566 47.6518ZM50.334 61.2521H50.7086C52.0571 61.2088 53.3825 61.0619 54.6129 60.4654C57.722 58.9556 58.3876 54.8179 55.9326 52.2995C54.4919 50.83 52.6996 49.9944 50.8238 49.2971C48.5187 48.4327 46.0897 47.9371 43.6924 47.3579C43.3437 47.2743 43.2774 47.3838 43.2054 47.6777C42.2699 51.4793 41.3229 55.277 40.3643 59.0708C40.2865 59.3763 40.3816 59.4512 40.6525 59.5146C41.6811 59.7624 42.7012 60.0419 43.7298 60.2926C45.8878 60.8495 48.1007 61.1665 50.3283 61.2377L50.334 61.2521ZM52.8178 43.2144C53.5581 43.2275 54.2978 43.1638 55.025 43.0242C56.9469 42.6208 58.3357 41.5835 58.8947 39.6444C59.4537 37.7052 58.9955 35.9562 57.454 34.5558C56.6366 33.8355 55.7084 33.2517 54.7051 32.827C52.4663 31.8271 50.0776 31.3257 47.6975 30.7898C47.4094 30.7235 47.3863 30.9022 47.3373 31.101C46.9916 32.4918 46.6429 33.8835 46.2914 35.2762C45.7871 37.2931 45.2858 39.3303 44.7671 41.353C44.6922 41.6412 44.7412 41.768 45.0553 41.8371C45.6546 41.9639 46.2395 42.1454 46.836 42.2924C48.8011 42.7534 50.7749 43.1914 52.812 43.2L52.8178 43.2144Z" fill="white"/>
</svg>
