<svg width="93" height="92" viewBox="0 0 93 92" fill="none" xmlns="http://www.w3.org/2000/svg">
<rect x="0.5625" width="92" height="92" rx="46" fill="#0033AD"/>
<path d="M33.0442 45.5373C32.9165 47.7556 34.6241 49.6547 36.8424 49.7823C36.9221 49.7823 37.0019 49.7823 37.0817 49.7823C39.3159 49.7823 41.1193 47.979 41.1033 45.7448C41.1033 43.5106 39.3 41.7073 37.0658 41.7232C34.9273 41.7232 33.1559 43.3989 33.0442 45.5373Z" fill="white"/>
<path d="M18.0128 44.4999C17.2947 44.4521 16.6723 45.0106 16.6404 45.7287C16.6085 46.4469 17.1511 47.0693 17.8692 47.1012C18.5873 47.1491 19.1938 46.5905 19.2416 45.8724C19.2895 45.1542 18.731 44.5478 18.0128 44.4999Z" fill="white"/>
<path d="M32.7912 22.1419C33.4295 21.8228 33.6849 21.0248 33.3657 20.3865C33.0465 19.7481 32.2486 19.4928 31.6102 19.812C30.9719 20.1311 30.7166 20.9131 31.0357 21.5515C31.3549 22.2058 32.1369 22.4771 32.7912 22.1419C32.7912 22.1419 32.7752 22.1419 32.7912 22.1419Z" fill="white"/>
<path d="M36.877 29.2749C37.8664 28.7802 38.2654 27.5673 37.7707 26.5779C37.276 25.5884 36.0631 25.1895 35.0737 25.6842C34.0842 26.1789 33.6853 27.3918 34.18 28.3812C34.6747 29.3706 35.8876 29.7696 36.877 29.2749Z" fill="white"/>
<path d="M23.1193 34.1746C23.8854 34.6693 24.9067 34.4618 25.4174 33.6958C25.9121 32.9298 25.7046 31.9084 24.9386 31.3978C24.1726 30.903 23.1513 31.1105 22.6406 31.8765C22.1299 32.6425 22.3533 33.6798 23.1193 34.1746Z" fill="white"/>
<path d="M25.5629 43.7822C24.4458 43.7184 23.5042 44.5642 23.4404 45.6813C23.3766 46.7984 24.2224 47.7399 25.3395 47.8038C26.4566 47.8676 27.3981 47.0218 27.462 45.9047C27.5258 44.8036 26.68 43.846 25.5629 43.7822Z" fill="white"/>
<path d="M23.3408 57.299C22.5269 57.714 22.1918 58.7034 22.6067 59.5332C23.0216 60.3471 24.0111 60.6823 24.8409 60.2673C25.6548 59.8524 25.9899 58.863 25.575 58.0331C25.1601 57.2192 24.1547 56.8841 23.3408 57.299Z" fill="white"/>
<path d="M31.1651 39.6163C32.2662 40.3344 33.7344 40.0312 34.4366 38.9301C35.1547 37.8289 34.8515 36.3607 33.7504 35.6586C32.6492 34.9404 31.181 35.2436 30.4789 36.3448C29.7607 37.43 30.0639 38.8982 31.1651 39.6163Z" fill="white"/>
<path d="M55.9788 29.1161C56.9044 29.7225 58.1651 29.4672 58.7716 28.5416C59.378 27.616 59.1226 26.3552 58.197 25.7488C57.2714 25.1424 56.0107 25.3977 55.4043 26.3233C54.7819 27.2649 55.0372 28.5096 55.9788 29.1161Z" fill="white"/>
<path d="M60.0935 22.0143C60.6999 22.4132 61.4979 22.2377 61.8968 21.6313C62.2958 21.0248 62.1203 20.2269 61.5138 19.8279C60.9074 19.429 60.1095 19.6045 59.7105 20.195C59.3275 20.8014 59.503 21.6153 60.0935 22.0143Z" fill="white"/>
<path d="M56.282 41.6916C54.0637 41.5639 52.1487 43.2715 52.037 45.4897C51.9093 47.708 53.6169 49.623 55.8351 49.7347C55.9149 49.7347 55.9947 49.7347 56.0586 49.7347C58.2768 49.7347 60.0802 47.9314 60.0802 45.6972C60.0961 43.5747 58.4204 41.8033 56.282 41.6916Z" fill="white"/>
<path d="M38.2015 39.3285C38.8877 40.685 40.2761 41.5467 41.8082 41.5467C44.0264 41.5467 45.8298 39.7434 45.8298 37.5092C45.8298 36.8868 45.6861 36.2644 45.3989 35.6899C44.3935 33.6951 41.9678 32.8971 39.9889 33.9025C37.9941 34.9239 37.1961 37.3496 38.2015 39.3285Z" fill="white"/>
<path d="M69.7826 34.1745C70.5965 33.7595 70.9157 32.7541 70.5008 31.9403C70.0858 31.1264 69.0804 30.8072 68.2665 31.2221C67.4527 31.637 67.1335 32.6265 67.5324 33.4404C67.9633 34.2543 68.9528 34.5894 69.7826 34.1745Z" fill="white"/>
<path d="M59.5696 35.4512C58.4046 36.0417 57.9259 37.462 58.5163 38.627C59.1068 39.792 60.5271 40.2708 61.6921 39.6803C62.8571 39.0898 63.3359 37.6695 62.7454 36.5045C62.1549 35.3395 60.7346 34.8767 59.5696 35.4512Z" fill="white"/>
<path d="M46.4021 21.4079C47.3117 21.4558 48.0937 20.7536 48.1575 19.8439C48.2214 18.9343 47.5032 18.1523 46.5936 18.0885C45.6839 18.0406 44.902 18.7268 44.8381 19.6365C44.7902 20.5621 45.4924 21.344 46.4021 21.4079Z" fill="white"/>
<path d="M46.3861 31.8289C47.6947 31.9087 48.8118 30.9033 48.8756 29.5947C48.9554 28.2861 47.95 27.169 46.6414 27.1051C45.3328 27.0254 44.2157 28.0307 44.1518 29.3394C44.088 30.648 45.0774 31.7651 46.3861 31.8289Z" fill="white"/>
<path d="M33.5581 56.0227C34.7231 55.4322 35.2018 54.0119 34.6114 52.8469C34.0209 51.682 32.6006 51.2032 31.4356 51.7937C30.2706 52.3841 29.7918 53.8045 30.3823 54.9694C30.9728 56.1344 32.3931 56.6132 33.5581 56.0227Z" fill="white"/>
<path d="M47.9186 35.2912C46.7057 37.1583 47.2164 39.6479 49.0835 40.8607C50.9507 42.0736 53.4402 41.5629 54.6531 39.6958C55.866 37.8286 55.3553 35.3391 53.4881 34.1262C52.8338 33.6953 52.0678 33.4719 51.2858 33.4719C49.9293 33.4719 48.6686 34.1581 47.9186 35.2912Z" fill="white"/>
<path d="M54.9247 52.1443C53.9194 50.1494 51.4936 49.3515 49.5148 50.3569C47.5199 51.3623 46.722 53.788 47.7274 55.7669C48.7328 57.7617 51.1585 58.5596 53.1374 57.5542C55.1163 56.5648 55.9301 54.171 54.9407 52.1762C54.9407 52.1602 54.9407 52.1602 54.9247 52.1443Z" fill="white"/>
<path d="M61.9629 51.8568C60.8618 51.1387 59.3936 51.4419 58.6914 52.543C57.9733 53.6442 58.2765 55.1124 59.3776 55.8145C60.4788 56.5327 61.947 56.2295 62.6491 55.1283C63.3673 54.0431 63.0641 52.5749 61.9629 51.8568Z" fill="white"/>
<path d="M69.6866 45.8085C69.7504 44.6914 68.9046 43.7499 67.7875 43.686C66.6704 43.6222 65.7288 44.468 65.665 45.5851C65.6012 46.7022 66.447 47.6438 67.5641 47.7076C68.6652 47.7715 69.6228 46.9097 69.6866 45.8085Z" fill="white"/>
<path d="M75.2541 44.3724C74.536 44.3245 73.9136 44.883 73.8817 45.6012C73.8498 46.3193 74.3924 46.9417 75.1105 46.9736C75.8287 47.0215 76.4351 46.463 76.483 45.7448C76.5149 45.0267 75.9723 44.4202 75.2541 44.3724Z" fill="white"/>
<path d="M70.0057 57.2985C69.2397 56.8037 68.2183 57.0112 67.7076 57.7772C67.2129 58.5432 67.4204 59.5646 68.1864 60.0753C68.9524 60.57 69.9738 60.3625 70.4844 59.5965C70.9951 58.8305 70.7717 57.7932 70.0057 57.2985Z" fill="white"/>
<path d="M33.0148 69.4598C32.4084 69.0609 31.6104 69.2364 31.2115 69.8269C30.8125 70.4333 30.988 71.2312 31.5785 71.6302C32.1849 72.0292 32.9829 71.8536 33.3818 71.2632C33.7968 70.6727 33.6212 69.8588 33.0148 69.4598Z" fill="white"/>
<path d="M60.333 69.331C59.6947 69.6501 59.4393 70.4481 59.7585 71.0864C60.0777 71.7248 60.8756 71.9801 61.514 71.6609C62.1523 71.3418 62.4076 70.5598 62.0885 69.9214C61.7693 69.2671 60.9873 68.9958 60.333 69.331C60.349 69.331 60.333 69.331 60.333 69.331Z" fill="white"/>
<path d="M45.2052 56.1816C46.418 54.3144 45.9073 51.8249 44.0402 50.5961C42.173 49.3832 39.6835 49.8939 38.4547 51.7611C37.2258 53.6282 37.7525 56.1178 39.6196 57.3466C40.2739 57.7775 41.04 58.0009 41.8219 58.0009C43.1944 58.0168 44.4551 57.3306 45.2052 56.1816Z" fill="white"/>
<path d="M37.1482 62.3577C36.2226 61.7513 34.9619 62.0067 34.3554 62.9323C33.749 63.8579 34.0043 65.1186 34.9299 65.725C35.8555 66.3314 37.1163 66.0761 37.7227 65.1505C38.3451 64.2249 38.0897 62.9642 37.1482 62.3577Z" fill="white"/>
<path d="M46.5442 70.0655C45.6345 70.0176 44.8526 70.7198 44.7887 71.6294C44.7249 72.5391 45.443 73.321 46.3527 73.3849C47.2623 73.4328 48.0443 72.7465 48.1081 71.8369C48.156 70.9113 47.4538 70.1293 46.5442 70.0655Z" fill="white"/>
<path d="M46.5644 59.6449C45.2558 59.5651 44.1387 60.5705 44.0749 61.8792C43.9951 63.1878 45.0005 64.3049 46.3091 64.3687C47.6177 64.4325 48.7348 63.4431 48.7986 62.1345C48.8784 60.8418 47.873 59.7088 46.5644 59.6449Z" fill="white"/>
<path d="M56.251 62.1981C55.2616 62.7088 54.8626 63.9216 55.3733 64.9111C55.884 65.9005 57.0968 66.2995 58.0863 65.7888C59.0757 65.2941 59.4747 64.0812 58.9799 63.0918C58.4693 62.1023 57.2564 61.6874 56.251 62.1981Z" fill="white"/>
</svg>
