<svg width="92" height="92" viewBox="0 0 92 92" fill="none" xmlns="http://www.w3.org/2000/svg">
<rect width="92" height="92" rx="46" fill="#008DE3"/>
<g clip-path="url(#clip0_273_1177)">
<path d="M11.9939 51.216L12.2989 49.8782C12.6789 48.2433 13.0214 46.6005 13.4896 44.9897C13.7394 44.0885 14.1471 43.2387 14.6937 42.4799C15.5464 41.3356 16.7688 40.5216 18.1534 40.1761C19.0847 39.9295 20.045 39.8098 21.0084 39.8202C29.4101 39.8202 37.8136 39.8202 46.219 39.8202C46.3768 39.8202 46.4036 39.8496 46.3688 40.0075C45.9139 42.0651 45.4778 44.1254 44.8998 46.1616C44.626 47.1687 44.1448 48.1074 43.4871 48.9176C42.6117 49.9547 41.4227 50.6787 40.0996 50.9806C39.1697 51.2066 38.2148 51.3135 37.258 51.299C28.8991 51.299 20.5401 51.299 12.1812 51.299H11.9939V51.216Z" fill="white"/>
<path d="M22.0554 73.1383L22.6815 69.6331C23.0026 67.8278 23.3246 66.0199 23.6475 64.2094C23.7866 63.4067 23.915 62.6307 24.0649 61.8387C24.0863 61.7156 24.1318 61.6782 24.2575 61.6782L41.5105 61.6916C43.0223 61.6916 44.5314 61.6916 46.0432 61.6916C48.1266 61.7017 50.2061 61.5127 52.2535 61.1269C54.2254 60.7692 56.1242 60.0865 57.8725 59.1068C60.0631 57.8414 61.8273 55.9523 62.9403 53.6805C63.6699 52.1692 64.2385 50.5853 64.6367 48.9551C65.0889 47.232 65.4796 45.4954 65.7766 43.7401C66.0559 42.2666 66.185 40.7686 66.1619 39.269C66.1531 37.7659 65.8391 36.2803 65.2388 34.9023C64.4361 33.147 63.0795 31.9295 61.359 31.0974C60.084 30.508 58.7332 30.0992 57.3454 29.8826C55.6019 29.6006 53.8377 29.4663 52.0716 29.4812C46.6506 29.4812 41.2287 29.4768 35.8059 29.4679C33.8312 29.4679 31.8539 29.4679 29.8792 29.4679C29.7267 29.4679 29.7053 29.4224 29.7294 29.2832C30.1949 26.7039 30.6578 24.1227 31.118 21.5397C31.3214 20.4052 31.5239 19.2707 31.7254 18.1362C31.7415 18.0453 31.7709 17.9891 31.8753 18.0078C31.9154 18.0105 31.9556 18.0105 31.9957 18.0078C39.7499 18.0078 47.5041 18.0078 55.2583 18.0078C57.2384 18.0078 59.2184 18.0292 61.1931 18.2192C63.9113 18.4333 66.588 19.0139 69.1507 19.945C71.2833 20.7196 73.2394 21.9132 74.9035 23.4555C76.6489 25.125 77.9604 27.1953 78.7244 29.4866C79.1839 30.8345 79.504 32.2261 79.6796 33.6393C79.8797 35.2123 79.9558 36.7985 79.9071 38.3834C79.8647 39.9046 79.7459 41.4228 79.5512 42.9321C79.3077 44.8452 78.9866 46.745 78.5585 48.6233C77.7658 52.2898 76.4644 55.8275 74.6921 59.1335C73.3426 61.6318 71.6181 63.9085 69.5788 65.8844C67.1889 68.1573 64.3688 69.9295 61.2841 71.0967C59.2687 71.8774 57.1679 72.4163 55.0256 72.7021C53.6529 72.8894 52.2723 73.0018 50.8889 73.0741C49.0828 73.165 47.2794 73.1703 45.4733 73.1703H22.2615C22.1913 73.1733 22.1213 73.1624 22.0554 73.1383Z" fill="white"/>
</g>
<defs>
<clipPath id="clip0_273_1177">
<rect width="67.9257" height="55.1599" fill="white" transform="translate(12 18)"/>
</clipPath>
</defs>
</svg>
