<svg width="92" height="92" viewBox="0 0 92 92" fill="none" xmlns="http://www.w3.org/2000/svg">
<rect width="92" height="92" rx="46" fill="#FF060A"/>
<path d="M74.4788 33.8391C71.5587 31.1429 67.5192 27.0256 64.2292 24.1055L64.0345 23.9692C63.7106 23.7091 63.3454 23.5051 62.9541 23.3657C55.0211 21.8862 18.1013 14.985 17.381 15.0726C17.1791 15.1009 16.9862 15.174 16.8164 15.2867L16.6315 15.4328C16.4038 15.664 16.2308 15.9434 16.1253 16.2504L16.0767 16.3769V17.068V17.1751C20.2329 28.7484 36.6439 66.6611 39.8755 75.5577C40.0702 76.1612 40.4401 77.3098 41.1312 77.3682H41.2869C41.6568 77.3682 43.2336 75.2852 43.2336 75.2852C43.2336 75.2852 71.4224 41.1005 74.2744 37.4601C74.6435 37.0117 74.9694 36.5293 75.2477 36.0195C75.3188 35.6206 75.2853 35.2101 75.1505 34.828C75.0157 34.4459 74.7843 34.1052 74.4788 33.8391ZM50.4658 37.8202L62.4966 27.8432L69.5535 34.3453L50.4658 37.8202ZM45.7936 37.1681L25.0803 20.1925L58.5934 26.3734L45.7936 37.1681ZM47.6625 41.6164L68.8624 38.1998L44.6256 67.4009L47.6625 41.6164ZM22.2673 21.8862L44.061 40.3802L40.9073 67.4203L22.2673 21.8862Z" fill="white"/>
</svg>
