<svg width="92" height="92" viewBox="0 0 92 92" fill="none" xmlns="http://www.w3.org/2000/svg">
<rect width="92" height="92" rx="46" fill="#2C7DF7"/>
<g clip-path="url(#clip0_273_1317)">
<path d="M51.8118 74.3541C47.7966 74.3541 44.8659 73.387 43.0198 71.4528C41.3096 69.8155 40.3171 67.5677 40.2594 65.2008C40.2386 64.4817 40.4052 63.7696 40.7429 63.1345C41.0579 62.5856 41.5129 62.1303 42.0615 61.8148C42.6991 61.4968 43.4019 61.3313 44.1144 61.3313C44.8269 61.3313 45.5297 61.4968 46.1673 61.8148C46.7149 62.129 47.1678 62.5849 47.4785 63.1345C47.8259 63.7666 47.9988 64.4798 47.9793 65.2008C48.0152 66.0619 47.7682 66.9111 47.2761 67.6186C46.8659 68.1961 46.2796 68.6251 45.605 68.8414C46.2647 69.6813 47.198 70.2631 48.2425 70.4857C49.4111 70.8251 50.6214 70.9996 51.8383 71.0042C53.4494 71.0183 55.0273 70.5465 56.3662 69.6503C57.7552 68.669 58.791 67.2663 59.3202 65.6501C59.991 63.7265 60.3183 61.7 60.2873 59.663C60.3414 57.5394 59.9831 55.4254 59.2322 53.4382C58.6675 51.8488 57.5954 50.4894 56.1815 49.5697C54.8672 48.7381 53.3416 48.3017 51.7864 48.3126C50.4311 48.4274 49.1244 48.8711 47.9793 49.6051L45.1564 51.0204V49.6051L57.843 32.5858H40.2594V50.2469C40.2097 51.5213 40.5468 52.781 41.2265 53.8603C41.5553 54.3306 42 54.708 42.5176 54.956C43.0351 55.204 43.6079 55.3141 44.1805 55.2757C45.2384 55.2543 46.2615 54.8937 47.0991 54.2471C48.0486 53.5513 48.8748 52.7013 49.5434 51.7325C49.6036 51.5626 49.7146 51.4154 49.8613 51.3108C49.9791 51.209 50.1295 51.1528 50.2852 51.1525C50.5906 51.1804 50.8797 51.3033 51.1117 51.504C51.4055 51.8323 51.5655 52.259 51.5599 52.6996C51.526 52.9958 51.4731 53.2894 51.4017 53.5788C50.7771 55.0907 49.73 56.3906 48.3859 57.3229C47.1375 58.1677 45.6631 58.6156 44.1557 58.6079C40.3487 58.6079 37.7113 57.8577 36.2436 56.3572C35.4892 55.5279 34.9078 54.5564 34.5334 53.4996C34.159 52.4429 33.9991 51.322 34.0632 50.2027V32.5858H25.1196V29.3044H34.1048V21.8225L32.0477 19.7639V18.0862H38.0171L40.2594 19.2468V29.3044L63.4871 29.2338L65.7997 31.5548L51.5568 45.8669C52.4172 45.5209 53.3234 45.3017 54.2469 45.2163C56.0747 45.2963 57.858 45.8054 59.4526 46.7023C61.2992 47.58 62.8554 48.9688 63.9368 50.7039C64.9057 52.1728 65.5915 53.8098 65.959 55.5307C66.261 56.8881 66.4231 58.2729 66.4425 59.6634C66.4519 62.317 65.8503 64.9371 64.6842 67.3208C63.5783 69.6291 61.7171 71.4903 59.4088 72.5962C57.0461 73.7605 54.4459 74.3622 51.8118 74.3541Z" fill="white"/>
</g>
<defs>
<clipPath id="clip0_273_1317">
<rect width="41.3222" height="56.268" fill="white" transform="translate(25.1196 18.0862)"/>
</clipPath>
</defs>
</svg>
