<svg width="92" height="92" viewBox="0 0 92 92" fill="none" xmlns="http://www.w3.org/2000/svg">
<rect width="92" height="92" rx="46" fill="#8247E5"/>
<g clip-path="url(#clip0_273_1455)">
<path d="M61.3639 35.3713C60.2466 34.7328 58.81 34.7328 57.5331 35.3713L48.5947 40.6386L42.5294 43.9905L33.7506 49.2577C32.6333 49.8962 31.1967 49.8962 29.9198 49.2577L23.0564 45.1078C21.9391 44.4693 21.141 43.1924 21.141 41.7559V33.7751C21.141 32.4982 21.7795 31.2213 23.0564 30.4232L29.9198 26.4329C31.0371 25.7944 32.4737 25.7944 33.7506 26.4329L40.614 30.5828C41.7313 31.2213 42.5294 32.4982 42.5294 33.9348V39.202L48.5947 35.6905V30.2636C48.5947 28.9867 47.9562 27.7098 46.6793 26.9117L33.9102 19.4098C32.7929 18.7714 31.3564 18.7714 30.0794 19.4098L16.9911 27.0713C15.7141 27.7098 15.0757 28.9867 15.0757 30.2636V45.2674C15.0757 46.5443 15.7141 47.8212 16.9911 48.6193L29.9198 56.1212C31.0371 56.7596 32.4737 56.7596 33.7506 56.1212L42.5294 51.0135L48.5947 47.502L57.3735 42.3943C58.4908 41.7559 59.9273 41.7559 61.2042 42.3943L68.0677 46.3847C69.185 47.0231 69.983 48.3 69.983 49.7366V57.7173C69.983 58.9942 69.3446 60.2711 68.0677 61.0692L61.3639 65.0596C60.2466 65.698 58.81 65.698 57.5331 65.0596L50.6697 61.0692C49.5524 60.4307 48.7543 59.1538 48.7543 57.7173V52.6096L42.689 56.1212V61.3884C42.689 62.6653 43.3274 63.9423 44.6043 64.7403L57.5331 72.2422C58.6504 72.8807 60.0869 72.8807 61.3639 72.2422L74.2926 64.7403C75.4099 64.1019 76.208 62.825 76.208 61.3884V46.2251C76.208 44.9481 75.5695 43.6712 74.2926 42.8732L61.3639 35.3713Z" fill="white"/>
</g>
<defs>
<clipPath id="clip0_273_1455">
<rect width="61.2919" height="53.4708" fill="white" transform="translate(15.0718 19.0909)"/>
</clipPath>
</defs>
</svg>
