<?xml version="1.0" encoding="utf-8"?>
<svg xmlns="http://www.w3.org/2000/svg"
    xmlns:xlink="http://www.w3.org/1999/xlink">
    <style>:root>svg{display:none}:root>svg:target{display:block}</style>
    <symbol fill="none" viewBox="0 0 77 50" id="logosite"
        xmlns="http://www.w3.org/2000/svg">
        <g fill-rule="nonzero" fill="none">
            <path style="fill: var(--brand-color, currentColor)" fill="currentColor" d="M3.892 43.423H2.484v6.45H.897v-6.45H0v-1.31h.897v-.55c0-.892.23-1.54.69-1.943.47-.413 1.201-.62 2.195-.62v1.338c-.479 0-.815.094-1.008.282-.193.178-.29.493-.29.943v.55h1.408v1.31zm.87 2.535c0-.78.157-1.47.47-2.07.321-.602.754-1.066 1.297-1.395a3.422 3.422 0 0 1 1.822-.507c.598 0 1.118.122 1.56.366.45.235.809.53 1.076.887v-1.126h1.587v7.76h-1.587v-1.155a3.14 3.14 0 0 1-1.09.916c-.46.244-.985.366-1.574.366a3.328 3.328 0 0 1-1.794-.507 3.734 3.734 0 0 1-1.298-1.437c-.312-.62-.469-1.319-.469-2.098zm6.225.028c0-.535-.11-1-.331-1.394a2.255 2.255 0 0 0-.842-.902 2.187 2.187 0 0 0-1.132-.31c-.405 0-.782.104-1.132.31-.35.197-.635.493-.856.887-.211.386-.317.846-.317 1.38 0 .536.106 1.006.317 1.41.221.403.506.713.856.929.359.206.736.31 1.132.31.405 0 .782-.104 1.132-.31.35-.207.63-.507.842-.902.22-.403.33-.873.33-1.408zM17.4 50a3.882 3.882 0 0 1-1.615-.324 2.928 2.928 0 0 1-1.118-.901 2.31 2.31 0 0 1-.441-1.282h1.628c.028.329.18.606.456.83.285.217.64.325 1.062.325.442 0 .783-.085 1.022-.254.248-.178.372-.403.372-.676 0-.29-.138-.507-.414-.648-.266-.14-.694-.295-1.283-.464-.57-.16-1.035-.315-1.394-.465a2.504 2.504 0 0 1-.939-.69c-.257-.31-.386-.719-.386-1.226 0-.413.12-.788.359-1.126.239-.348.58-.62 1.021-.817.45-.197.966-.296 1.546-.296.865 0 1.56.225 2.084.676.534.441.819 1.047.856 1.817h-1.574a1.151 1.151 0 0 0-.414-.831c-.248-.207-.584-.31-1.007-.31-.414 0-.732.08-.953.24a.746.746 0 0 0-.331.633c0 .207.074.38.22.521.148.141.327.254.54.338.21.076.524.174.938.296.552.15 1.003.305 1.352.465.36.15.667.376.925.676.258.3.391.7.4 1.197 0 .442-.12.836-.359 1.183-.239.348-.58.62-1.021.817-.432.197-.943.296-1.532.296zm6.448-6.577v4.295c0 .291.064.503.193.634.138.122.368.183.69.183h.966v1.338h-1.242c-.708 0-1.251-.169-1.628-.507-.378-.338-.566-.887-.566-1.648v-4.295h-.897v-1.31h.897v-1.93h1.587v1.93h1.85v1.31h-1.85zm7.137-1.437c.598 0 1.131.127 1.6.38.479.254.852.63 1.119 1.127.266.498.4 1.099.4 1.803v4.577h-1.56v-4.338c0-.695-.17-1.225-.51-1.591-.34-.376-.806-.564-1.394-.564-.59 0-1.059.188-1.408.564-.34.366-.511.896-.511 1.591v4.338h-1.573v-7.76h1.573V43c.258-.32.584-.568.98-.746a3.15 3.15 0 0 1 1.284-.268zM39.41 50a3.875 3.875 0 0 1-1.946-.493 3.62 3.62 0 0 1-1.366-1.408c-.331-.61-.497-1.315-.497-2.113 0-.789.17-1.488.51-2.099.341-.61.806-1.08 1.395-1.408a3.98 3.98 0 0 1 1.973-.493c.727 0 1.385.164 1.974.493a3.562 3.562 0 0 1 1.394 1.408c.34.61.51 1.31.51 2.099 0 .789-.174 1.488-.524 2.099a3.701 3.701 0 0 1-1.435 1.422A4.057 4.057 0 0 1 39.41 50zm0-1.394c.405 0 .783-.099 1.132-.296.359-.197.649-.493.87-.887.22-.395.33-.874.33-1.437 0-.563-.105-1.038-.316-1.423a2.156 2.156 0 0 0-.842-.887 2.266 2.266 0 0 0-1.132-.296c-.405 0-.782.099-1.132.296a2.1 2.1 0 0 0-.814.887c-.203.385-.304.86-.304 1.423 0 .836.207 1.484.621 1.944.424.45.953.676 1.587.676zm4.979-2.648c0-.78.156-1.47.47-2.07.321-.602.754-1.066 1.297-1.395a3.446 3.446 0 0 1 1.835-.507c.497 0 .985.113 1.463.338.488.216.874.507 1.16.873v-3.746H52.2v10.422h-1.587v-1.169c-.258.376-.617.686-1.077.93-.451.244-.97.366-1.56.366-.662 0-1.27-.169-1.821-.507a3.733 3.733 0 0 1-1.298-1.437c-.313-.62-.47-1.319-.47-2.098zm6.225.028c0-.535-.11-1-.332-1.394a2.256 2.256 0 0 0-.842-.902 2.188 2.188 0 0 0-1.131-.31c-.405 0-.783.104-1.132.31-.35.197-.635.493-.856.887-.212.386-.317.846-.317 1.38 0 .536.105 1.006.317 1.41.221.403.506.713.856.929.359.206.736.31 1.132.31.404 0 .782-.104 1.131-.31.35-.207.63-.507.842-.902.221-.403.332-.873.332-1.408zm10.623-.183c0 .29-.018.554-.055.789h-5.81c.045.62.27 1.117.676 1.493.405.375.901.563 1.49.563.847 0 1.445-.362 1.795-1.085h1.697c-.23.714-.649 1.3-1.256 1.76-.598.452-1.343.677-2.236.677-.727 0-1.38-.164-1.96-.493a3.652 3.652 0 0 1-1.352-1.408c-.322-.61-.483-1.315-.483-2.113s.156-1.498.469-2.099c.322-.61.768-1.08 1.339-1.408.58-.329 1.242-.493 1.987-.493.718 0 1.358.16 1.919.479.561.319.998.77 1.31 1.352.314.573.47 1.235.47 1.986zm-1.642-.507c-.01-.592-.216-1.066-.621-1.423s-.907-.535-1.505-.535c-.542 0-1.007.178-1.394.535-.386.348-.616.822-.69 1.423h4.21zm3.826 4.676a.965.965 0 0 1-.718-.296 1.005 1.005 0 0 1-.29-.732c0-.291.097-.536.29-.733a.965.965 0 0 1 .718-.296c.276 0 .51.1.703.296.194.197.29.442.29.733 0 .29-.096.535-.29.732a.949.949 0 0 1-.703.296zm3.494-8.887a.965.965 0 0 1-.717-.296 1.005 1.005 0 0 1-.29-.733c0-.29.097-.535.29-.732a.965.965 0 0 1 .717-.296c.276 0 .511.099.704.296.194.197.29.441.29.732s-.096.536-.29.733a.949.949 0 0 1-.704.296zm.773 1.028v7.76h-1.573v-7.76h1.573zM73.053 50a3.875 3.875 0 0 1-1.946-.493 3.62 3.62 0 0 1-1.367-1.408c-.331-.61-.497-1.315-.497-2.113 0-.789.17-1.488.511-2.099.34-.61.805-1.08 1.394-1.408a3.98 3.98 0 0 1 1.974-.493c.727 0 1.385.164 1.973.493a3.562 3.562 0 0 1 1.394 1.408c.34.61.511 1.31.511 2.099 0 .789-.175 1.488-.524 2.099a3.701 3.701 0 0 1-1.436 1.422 4.057 4.057 0 0 1-1.987.493zm0-1.394c.405 0 .782-.099 1.131-.296.36-.197.65-.493.87-.887.22-.395.331-.874.331-1.437 0-.563-.106-1.038-.317-1.423a2.156 2.156 0 0 0-.842-.887 2.266 2.266 0 0 0-1.132-.296c-.405 0-.782.099-1.132.296a2.1 2.1 0 0 0-.814.887c-.202.385-.304.86-.304 1.423 0 .836.207 1.484.621 1.944.424.45.953.676 1.588.676z"></path>
            <path fill="#21bdd2" style="fill: var(--color1, #21bdd2)" d="M36.05.036 19.583 5.288c-.902.288-.708 1.712.233 1.712H47.22c.098 0 .196-.02.289-.057l12.962-5.251C61.32 1.348 61.09 0 60.182 0h-23.9a.767.767 0 0 0-.233.036z"/>
            <path fill="#19daeb" style="fill: var(--color2, #19daeb)" d="m35.05 10.036-16.466 5.252c-.902.288-.708 1.712.233 1.712H46.22a.77.77 0 0 0 .289-.057l12.962-5.251c.848-.344.618-1.692-.29-1.692h-23.9a.766.766 0 0 0-.233.036z" />
            <path fill="#089fac" style="fill: var(--color3, #089fac)" d="m35.05 20.036-16.466 5.252c-.902.288-.708 1.712.233 1.712H46.22a.77.77 0 0 0 .289-.057l12.962-5.251c.848-.344.618-1.692-.29-1.692h-23.9a.762.762 0 0 0-.233.036z" />
        </g>
    </symbol>
</svg>