<svg width="24" height="24" viewBox="0 0 24 24" xmlns="http://www.w3.org/2000/svg">
    <g fill="none" fill-rule="evenodd">
        <circle fill="#08C" fill-rule="nonzero" cx="12" cy="12" r="12"/>
        <path d="M8.657 7.929h6.729c.257 0 .471.042.728.171.3.129.472.343.557.514 0 0 0 .043.043.043.129.214.215.472.215.772 0 .257-.043.514-.215.771l-4.243 7.286c-.085.171-.257.257-.471.257a.592.592 0 0 1-.471-.257L7.37 10.2c-.085-.171-.257-.386-.257-.729-.043-.3.043-.557.172-.814.128-.257.343-.471.643-.557.257-.171.557-.171.728-.171zm2.829 1.028H8.657c-.171 0-.257 0-.3.043a.335.335 0 0 0-.171.171c-.043.043-.043.129-.043.215 0 .043.043.085.128.257l3.215 5.571V8.957zm1.028 0v6.3l3.257-5.614c.043-.086.043-.172.043-.257 0-.086 0-.172-.043-.215-.042-.042-.042-.085-.085-.085l-.043-.043C15.557 9 15.47 9 15.343 9h-2.829v-.043z" fill="#FFF"/>
    </g>
</svg>
