<svg width="350" height="116" viewBox="0 0 350 116" xmlns="http://www.w3.org/2000/svg">
    <g fill="none" fill-rule="evenodd">
        <path d="M0 0h350v116H0z"/>
        <path d="M95.795 73.205c1.866 0 3.652.674 4.964 1.874 1.312 1.2 2.043 2.827 2.032 4.523-.01 1.696-.763 3.323-2.09 4.523-1.327 1.2-3.121 1.873-4.988 1.873-1.866 0-3.652-.674-4.964-1.874-1.312-1.2-2.043-2.826-2.032-4.523.01-1.696.762-3.323 2.09-4.523 1.327-1.2 3.121-1.873 4.988-1.873zM79.289 31.578l-.08 12.662c-8.882-.002-16.11 6.476-16.16 14.48-.051 8.007 7.095 14.486 15.977 14.488l-.08 12.661C62.306 85.867 48.906 73.717 49 58.72c.095-15 13.648-27.144 30.29-27.14zm.595 12.236c8.92.001 16.097 6.558 16.045 14.66-.052 8.103-7.31 14.66-16.232 14.659l.187-29.319zm165.374 8.157c6.882.001 9.5 4.04 9.46 9.99l-.012 2.165-14.165-.003c-.058 3.102 2.658 3.679 6.136 3.68 1.483 0 3.967-.433 6.25-.793l.97 4.58c-2.443.649-5.568.974-8.207.973-7.203-.001-11.833-2.13-11.783-9.992.051-8.041 4.75-10.6 11.351-10.6zm-88.99-.051c7.761.001 11.22 3.933 11.178 10.353-.042 6.707-4.948 10.277-11.67 10.275-7.2 0-11.058-3.932-11.019-10.1.041-6.527 4.588-10.53 11.51-10.528zm130.788-3.513 6.642.001-.025 4.04 6.762.001-.026 4.436-6.764-.002-.059 9.088c-.008 1.443.593 1.55 2.394 1.551 1.48 0 4.724-.396 4.724-.396l.61 4.724c-1.564.397-3.685.685-5.286.685h-.98l-.197-.002-.397-.004-.396-.008c-3.63-.095-7.15-.84-7.113-6.515l.058-9.123-3.199-.001.027-4.436h3.2l.025-4.039zm-154.241-2.152c4.201 0 6.677.686 8.793 1.552l-1.828 4.436c-2.678-.65-3.796-.903-6.917-.94-5.12-.072-8.697 2.523-8.731 7.86-.034 5.338 3.71 8.187 9.43 8.188 2.76 0 4.403-.215 6.565-.72l1.412 4.616c-2.726.901-5.088 1.226-8.729 1.225-10.363-.002-15.656-4.582-15.603-12.949.056-8.87 5.325-13.27 15.608-13.268zm73.51 5.71c6.762 0 9.472 1.732 9.444 6.168l-.055 8.763c-.004.649.715.793 1.954.83l-.268 4.543a22.49 22.49 0 0 1-1.562.036c-2.639 0-5.437-.397-6.027-2.092-1.607 1.118-3.895 2.235-6.297 2.234-4.8 0-7.509-2.02-7.484-5.951.031-4.977 5.08-5.985 9.401-5.985l3.8.001.008-1.227c.011-1.73-1.226-2.235-3.946-2.236-2.162 0-4.485.433-6.528.864l-1.292-4.363c2.487-.865 5.372-1.586 8.852-1.585zm66.825-.026c6.842.001 7.3 3.391 7.272 7.863l-.078 12.334-6.642-.001.074-11.829c.018-2.704-.658-3.173-2.9-3.174-2 0-3.805.577-4.888 1.045l-.088 13.956-6.683-.001.126-19.69 6.681.002-.013 1.983c1.327-.901 4.218-2.488 7.14-2.488zm-50.374-7.004 6.681.001-.172 27.192-6.68-.001.171-27.192zm-53.105 7.493h7.162l3.614 10.676 1.095 3.93 1.266-3.93 4.147-10.673h7.003l-8.607 19.689-7.923-.001-7.757-19.691zm39.537 11.583-3.279.072c-1.962.035-3.405.612-3.414 2.054-.007 1.154 1.23 1.66 2.43 1.66 1.28 0 2.802-.326 4.244-.686l.02-3.1zm-53.092-7.33c-3.6 0-4.615 2.415-4.635 5.625-.02 3.39 1.086 5.445 4.646 5.446 3.603 0 4.496-2.127 4.517-5.481.02-3.173-.845-5.59-4.528-5.59zm88.556-.455c-2.28 0-3.77 1.442-3.906 4.039h7.121c.096-2.38-1.054-4.038-3.215-4.039zM96.07 31c1.866 0 3.652.674 4.964 1.874 1.312 1.2 2.043 2.826 2.032 4.523-.01 1.696-.762 3.323-2.09 4.523-1.327 1.2-3.121 1.873-4.987 1.873a7.628 7.628 0 0 1-2.69-.487 7.061 7.061 0 0 1-2.274-1.387 6.333 6.333 0 0 1-1.513-2.075 5.87 5.87 0 0 1-.52-2.448c.006-.84.193-1.672.552-2.448a6.454 6.454 0 0 1 1.538-2.075 7.18 7.18 0 0 1 2.292-1.386A7.68 7.68 0 0 1 96.07 31z" opacity=".8" fill="#141029" fill-opacity=".6" fill-rule="nonzero"/>
    </g>
</svg>
