<?xml version="1.0" encoding="utf-8"?>
<svg xmlns="http://www.w3.org/2000/svg"
    xmlns:xlink="http://www.w3.org/1999/xlink">
    <style>:root>svg{display:none}:root>svg:target{display:block}</style>
    <symbol fill="none" viewBox="0 0 350 116" id="covalent"
        xmlns="http://www.w3.org/2000/svg">
        <!-- <path d="M0 0h350v116H0z" /> -->
        <g fill="none" fill-rule="evenodd">
            <path style="fill: var(--brand-color, currentColor)" fill="currentColor" fill-rule="nonzero" d="M95.795 73.205c1.866 0 3.652.674 4.964 1.874 1.312 1.2 2.043 2.827 2.032 4.523-.01 1.696-.763 3.323-2.09 4.523-1.327 1.2-3.121 1.873-4.988 1.873-1.866 0-3.652-.674-4.964-1.874-1.312-1.2-2.043-2.826-2.032-4.523.01-1.696.762-3.323 2.09-4.523 1.327-1.2 3.121-1.873 4.988-1.873zM79.289 31.578l-.08 12.662c-8.882-.002-16.11 6.476-16.16 14.48-.051 8.007 7.095 14.486 15.977 14.488l-.08 12.661C62.306 85.867 48.906 73.717 49 58.72c.095-15 13.648-27.144 30.29-27.14zm.595 12.236c8.92.001 16.097 6.558 16.045 14.66-.052 8.103-7.31 14.66-16.232 14.659l.187-29.319zm165.374 8.157c6.882.001 9.5 4.04 9.46 9.99l-.012 2.165-14.165-.003c-.058 3.102 2.658 3.679 6.136 3.68 1.483 0 3.967-.433 6.25-.793l.97 4.58c-2.443.649-5.568.974-8.207.973-7.203-.001-11.833-2.13-11.783-9.992.051-8.041 4.75-10.6 11.351-10.6zm-88.99-.051c7.761.001 11.22 3.933 11.178 10.353-.042 6.707-4.948 10.277-11.67 10.275-7.2 0-11.058-3.932-11.019-10.1.041-6.527 4.588-10.53 11.51-10.528zm130.788-3.513 6.642.001-.025 4.04 6.762.001-.026 4.436-6.764-.002-.059 9.088c-.008 1.443.593 1.55 2.394 1.551 1.48 0 4.724-.396 4.724-.396l.61 4.724c-1.564.397-3.685.685-5.286.685h-.98l-.197-.002-.397-.004-.396-.008c-3.63-.095-7.15-.84-7.113-6.515l.058-9.123-3.199-.001.027-4.436h3.2l.025-4.039zm-154.241-2.152c4.201 0 6.677.686 8.793 1.552l-1.828 4.436c-2.678-.65-3.796-.903-6.917-.94-5.12-.072-8.697 2.523-8.731 7.86-.034 5.338 3.71 8.187 9.43 8.188 2.76 0 4.403-.215 6.565-.72l1.412 4.616c-2.726.901-5.088 1.226-8.729 1.225-10.363-.002-15.656-4.582-15.603-12.949.056-8.87 5.325-13.27 15.608-13.268zm73.51 5.71c6.762 0 9.472 1.732 9.444 6.168l-.055 8.763c-.004.649.715.793 1.954.83l-.268 4.543a22.49 22.49 0 0 1-1.562.036c-2.639 0-5.437-.397-6.027-2.092-1.607 1.118-3.895 2.235-6.297 2.234-4.8 0-7.509-2.02-7.484-5.951.031-4.977 5.08-5.985 9.401-5.985l3.8.001.008-1.227c.011-1.73-1.226-2.235-3.946-2.236-2.162 0-4.485.433-6.528.864l-1.292-4.363c2.487-.865 5.372-1.586 8.852-1.585zm66.825-.026c6.842.001 7.3 3.391 7.272 7.863l-.078 12.334-6.642-.001.074-11.829c.018-2.704-.658-3.173-2.9-3.174-2 0-3.805.577-4.888 1.045l-.088 13.956-6.683-.001.126-19.69 6.681.002-.013 1.983c1.327-.901 4.218-2.488 7.14-2.488zm-50.374-7.004 6.681.001-.172 27.192-6.68-.001.171-27.192zm-53.105 7.493h7.162l3.614 10.676 1.095 3.93 1.266-3.93 4.147-10.673h7.003l-8.607 19.689-7.923-.001-7.757-19.691zm39.537 11.583-3.279.072c-1.962.035-3.405.612-3.414 2.054-.007 1.154 1.23 1.66 2.43 1.66 1.28 0 2.802-.326 4.244-.686l.02-3.1zm-53.092-7.33c-3.6 0-4.615 2.415-4.635 5.625-.02 3.39 1.086 5.445 4.646 5.446 3.603 0 4.496-2.127 4.517-5.481.02-3.173-.845-5.59-4.528-5.59zm88.556-.455c-2.28 0-3.77 1.442-3.906 4.039h7.121c.096-2.38-1.054-4.038-3.215-4.039zM96.07 31c1.866 0 3.652.674 4.964 1.874 1.312 1.2 2.043 2.826 2.032 4.523-.01 1.696-.762 3.323-2.09 4.523-1.327 1.2-3.121 1.873-4.987 1.873a7.628 7.628 0 0 1-2.69-.487 7.061 7.061 0 0 1-2.274-1.387 6.333 6.333 0 0 1-1.513-2.075 5.87 5.87 0 0 1-.52-2.448c.006-.84.193-1.672.552-2.448a6.454 6.454 0 0 1 1.538-2.075 7.18 7.18 0 0 1 2.292-1.386A7.68 7.68 0 0 1 96.07 31z" />
        </g>
    </symbol>
    <symbol fill="none" viewBox="0 0 350 116" id="flux"
        xmlns="http://www.w3.org/2000/svg">
        <!-- <path d="M0 0h350v116H0z" /> -->
        <g style="fill: var(--brand-color, currentColor)" fill="currentColor" fill-rule="nonzero">
            <path d="M127 80c12.15 0 22-9.85 22-22s-9.85-22-22-22-22 9.85-22 22 9.85 22 22 22zm2.572-9.285-2.502 1.456-5.375-3.125 2.441-1.42.061-.036.093.054 5.282 3.071zm9.606-16.732v-2.93l-12.107-7.04-12.107 7.04v6.234l2.434-1.414 1.435-.835 1.435.835 2.588 1.504v-1.725l1.435-.834 6.726-3.911 1.435-.835 1.435.835 5.29 3.076zm0 3.337v7.822l-6.725 3.91-.01-.005-6.716-3.905V57.32l6.726-3.913 6.726 3.913zm-16.476 7.804v-4.498l-3.869-2.25-3.869 2.25v4.498l3.869 2.25 3.869-2.25z"/>
            <path fill-rule="nonzero" d="M165.738 49.2v7.4h13.475v5.198h-13.475V72H159V44h22v5.2zM184 44h7v28h-7zM219 50v22.666h-6.245v-2.699c-1.73 1.98-4.262 3.033-7.048 3.033C200.01 73 196 69.799 196 62.806V50h6.585v11.837c0 3.792 1.686 5.478 4.598 5.478 3.039 0 5.233-1.938 5.233-6.11V50H219zM238.463 73l-5.026-7.055L228.248 73H221l8.815-11.588L221.3 50h7.452l4.864 6.712L238.6 50h7.07l-8.52 11.242L246 73z"/>
        </g>
    </symbol>
    <symbol fill="none" viewBox="0 0 350 116" id="gnosischain"
        xmlns="http://www.w3.org/2000/svg">
        <!-- <path d="M0 0h350v116H0z" /> -->
        <g fill="none" fill-rule="evenodd">
            <path style="fill: var(--brand-color, currentColor)" fill="currentColor" fill-rule="nonzero" d="M91.753 34c6.476 0 12.325 2.866 16.45 7.44a16.113 16.113 0 0 1 1.568 1.947L91.735 62.435 73.7 43.405c.505-.68 1.044-1.341 1.601-1.966C79.445 36.866 85.277 34 91.753 34zm13.979 9.24c-3.708-3.95-8.652-6.117-13.98-6.117-5.326 0-10.253 2.167-13.979 6.117l13.98 14.75 13.979-14.75zm5.484 2.334-3.673 3.876a9.055 9.055 0 0 1 1.95 5.658c0 4.868-3.743 8.817-8.357 8.817-2.036 0-3.9-.772-5.361-2.057l-4.022 4.243-4.021-4.243c-1.463 1.285-3.308 2.057-5.362 2.057-4.613 0-8.356-3.95-8.356-8.817 0-2.15.73-4.115 1.95-5.658l-1.88-1.984-1.794-1.892C70.201 49.211 69 53.454 69 58.01 69 71.273 79.184 82 91.736 82c12.551 0 22.735-10.746 22.735-23.99.035-4.574-1.166-8.817-3.255-12.436zm20.12 22.05c2.936 0 5.82-1.042 7.555-2.451v-8.99h-7.956v3.889h3.684v2.367c-1.095.62-2.11.874-3.284.874-3.23 0-5.126-2.65-5.126-5.89 0-3.72 2.243-5.89 4.94-5.89 2.028 0 3.523.93 4.538 1.972l3.15-2.818c-1.949-2.367-4.939-3.58-7.689-3.58-6.06 0-9.612 4.51-9.612 10.316 0 6.51 4.326 10.202 9.8 10.202zm10.313-.225h4.165v-6.933c0-2.142.961-3.184 2.403-3.184 1.362 0 2.083.648 2.083 2.93V67.4h4.164v-8.257c0-4.368-1.975-5.778-4.672-5.778-1.521 0-2.91.62-3.924 1.86h-.054v-1.606h-4.165v13.781zm21.975.254c4.11 0 7.049-2.903 7.049-7.13 0-4.256-2.938-7.159-7.05-7.159-4.218 0-7.075 2.96-7.075 7.159 0 4.17 2.857 7.13 7.076 7.13zm0-3.89c-1.656 0-2.857-1.409-2.857-3.24 0-1.889 1.175-3.241 2.857-3.241 1.628 0 2.83 1.324 2.83 3.24 0 1.889-1.255 3.242-2.83 3.242zm13.586 3.89c3.577 0 5.313-1.86 5.313-4.425 0-2.705-1.575-3.494-4.458-4.537-1.309-.48-1.79-.79-1.79-1.212 0-.535.56-.761 1.043-.761.88 0 2 .48 2.91 1.437l1.975-3.072c-1.522-1.183-2.965-1.719-4.94-1.719-2.722 0-4.886 1.607-4.886 4.397 0 2.649 1.922 3.776 4.112 4.48 1.628.536 2.029.818 2.029 1.27 0 .506-.427.816-1.255.816-1.201 0-2.323-.507-3.417-1.55l-1.949 2.847c1.442 1.353 3.257 2.029 5.313 2.029zm9.676-15.754c1.442 0 2.51-1.1 2.51-2.537 0-1.38-1.068-2.48-2.51-2.48-1.441 0-2.482 1.128-2.482 2.48 0 1.438 1.04 2.537 2.482 2.537zm-2.082 15.5h4.165V53.618h-4.165v13.781zm11.492.254c3.577 0 5.312-1.86 5.312-4.425 0-2.705-1.574-3.494-4.458-4.537-1.308-.48-1.789-.79-1.789-1.212 0-.535.56-.761 1.04-.761.883 0 2.004.48 2.911 1.437l1.976-3.072c-1.521-1.183-2.963-1.719-4.939-1.719-2.724 0-4.885 1.607-4.885 4.397 0 2.649 1.922 3.776 4.111 4.48 1.629.536 2.03.818 2.03 1.27 0 .506-.428.816-1.256.816-1.201 0-2.324-.507-3.418-1.55l-1.949 2.847c1.443 1.353 3.259 2.029 5.314 2.029zm23.298 0c3.364 0 6.007-1.691 7.636-3.805l-3.258-2.959c-1.094 1.38-2.616 2.255-4.378 2.255-3.097 0-5.1-2.509-5.1-5.721 0-3.664 2.324-5.806 5.074-5.806 1.841 0 3.364 1.043 4.377 2.311l3.258-2.96c-2.082-2.676-4.966-3.86-7.635-3.86-6.248 0-9.773 4.594-9.773 10.315 0 6.65 4.352 10.23 9.799 10.23zm9.687-.254h4.167v-6.96c0-2.143.961-3.157 2.429-3.157s2.19.676 2.19 2.902V67.4h4.165v-8.314c0-4.34-2.002-5.72-4.7-5.72-1.602 0-3.017.62-4.032 1.831l-.052-.028v-8.511h-4.167v20.742zm21.146.254c1.573 0 2.749-.564 3.602-1.72l.054.029v1.437h3.98V53.618h-4.193v1.437l-.053.028a4.572 4.572 0 0 0-3.606-1.719c-3.363 0-5.954 2.931-5.954 7.159 0 4.255 2.59 7.13 6.17 7.13zm.88-3.89c-1.655 0-2.804-1.296-2.804-3.24 0-1.973 1.203-3.27 2.803-3.27 1.55 0 2.75 1.381 2.75 3.27 0 1.972-1.255 3.24-2.75 3.24zM263.072 51.9c1.442 0 2.51-1.1 2.51-2.537 0-1.38-1.068-2.48-2.51-2.48-1.441 0-2.482 1.128-2.482 2.48 0 1.438 1.04 2.537 2.482 2.537zm-2.082 15.5h4.165V53.618h-4.165v13.781zm7.193 0h4.165v-6.933c0-2.142.961-3.184 2.403-3.184 1.362 0 2.083.648 2.083 2.93V67.4H281v-8.257c0-4.368-1.977-5.778-4.673-5.778-1.522 0-2.91.62-3.925 1.86h-.053v-1.606h-4.165v13.781zM82.387 61.315a5.68 5.68 0 0 0 3.621-1.304l-8.286-8.744c-.784 1.047-1.236 2.37-1.236 3.821-.018 3.435 2.629 6.227 5.901 6.227zm23.414-10.065a6.42 6.42 0 0 1 1.237 3.82c0 3.454-2.647 6.246-5.902 6.228a5.61 5.61 0 0 1-3.621-1.304l8.286-8.744z" />
        </g>
    </symbol>
    <symbol fill="none" viewBox="0 0 350 116" id="polygon"
        xmlns="http://www.w3.org/2000/svg">
        <!-- <path d="M0 0h350v116H0z" /> -->
        <g fill="none" fill-rule="evenodd">
            <path style="fill: var(--brand-color, currentColor)" fill="currentColor" fill-rule="nonzero" d="M106.965 49.83c.967-.532 2.11-.532 2.988 0l10.197 5.95c.967.533 1.495 1.51 1.495 2.575v11.81c0 1.065-.615 2.042-1.495 2.575l-10.109 5.86c-.967.533-2.11.533-2.989 0l-10.108-5.86c-.968-.533-1.495-1.51-1.495-2.575V66.08l4.659-2.752v4.084c0 1.066.615 2.043 1.494 2.575l5.363 3.108c.967.533 2.11.533 2.988 0l5.363-3.197c.966-.532 1.494-1.509 1.494-2.575V61.02c0-1.066-.616-2.042-1.494-2.575l-5.363-3.108c-.967-.533-2.11-.533-2.988 0l-6.857 3.996-4.66 2.753-6.856 3.995c-.966.533-2.11.533-2.988 0l-10.11-5.86C74.528 59.687 74 58.71 74 57.645v-11.81c0-1.066.528-2.042 1.494-2.575l10.11-5.86c.967-.533 2.11-.533 2.988 0l9.934 5.86c.967.533 1.494 1.51 1.494 2.575v4.085l-4.659 2.752v-4.084c0-1.066-.615-2.043-1.494-2.575l-5.363-3.108c-.967-.533-2.11-.533-2.989 0l-5.361 3.108c-.968.532-1.495 1.51-1.495 2.575v6.304c0 1.066.615 2.042 1.495 2.575l5.45 3.197c.967.532 2.11.532 2.988 0l6.857-4.085 4.659-2.664 6.857-4.084zm33.241 15.583v9.804h-5.518V47.34h5.518v2.165c1.192-1.535 3.177-2.48 5.758-2.48 5.598 0 9.171 4.055 9.171 10.237s-3.89 10.238-9.648 10.238c-2.263 0-4.208-.749-5.28-2.087zm-.317-8.15c0 3.307 1.946 5.511 4.923 5.511 2.898 0 4.884-2.204 4.884-5.512 0-3.347-1.986-5.552-4.884-5.552-2.977 0-4.923 2.205-4.923 5.552zM167.667 67.5c6.154 0 10.562-4.332 10.562-10.238s-4.408-10.237-10.562-10.237c-6.153 0-10.56 4.331-10.56 10.237s4.407 10.238 10.56 10.238zm0-4.725c-2.977 0-5.003-2.245-5.003-5.513 0-3.307 2.026-5.552 5.003-5.552 2.979 0 5.003 2.245 5.003 5.552 0 3.268-2.024 5.513-5.003 5.513zm19.417-24.057v28.468h-5.52V38.718h5.52zm16.59 8.623-4.169 12.797-4.21-12.797h-5.637l7.266 19.687-2.938 8.19h5.28l2.82-8.11 7.265-19.767h-5.677zm15.658-.316c2.421 0 4.407.905 5.518 2.283V47.34h5.558v21.026c0 4.134-3.016 6.851-7.543 6.851H212.78v-4.292h9.212c1.667 0 2.897-1.3 2.897-3.15v-2.599c-1.032 1.457-3.137 2.324-5.478 2.324-5.916 0-9.45-4.056-9.45-10.238 0-6.182 3.534-10.237 9.37-10.237zm-3.93 10.237c0 3.347 1.945 5.512 4.883 5.512 2.978 0 4.923-2.165 4.923-5.512 0-3.347-1.945-5.552-4.923-5.552-2.938 0-4.884 2.205-4.884 5.552zm28.92 10.238c6.153 0 10.56-4.332 10.56-10.238s-4.407-10.237-10.56-10.237c-6.156 0-10.562 4.331-10.562 10.237S238.166 67.5 244.32 67.5zm0-4.725c-2.978 0-5.003-2.245-5.003-5.513 0-3.307 2.025-5.552 5.002-5.552 2.979 0 5.002 2.245 5.002 5.552 0 3.268-2.023 5.513-5.002 5.513zm19.138-6.458v10.867h-5.558V47.34h5.558v2.756c1.112-1.93 3.336-3.071 6.075-3.071 4.526 0 7.465 3.229 7.465 7.796v12.363h-5.56V56.041c0-2.401-1.548-4.134-3.85-4.134-2.422 0-4.13 1.85-4.13 4.41z" />
        </g>
    </symbol>
    <symbol fill="none" viewBox="0 0 350 116" id="solana"
        xmlns="http://www.w3.org/2000/svg">
        <!-- <path d="M0 0h350v116H0z" /> -->
        <g fill="none" fill-rule="evenodd">
            <path style="fill: var(--brand-color, currentColor)" fill="currentColor" fill-rule="nonzero" d="m92.785 68.384-6.768 7.125a1.565 1.565 0 0 1-1.146.491H52.786a.797.797 0 0 1-.43-.126.76.76 0 0 1-.146-1.171l6.76-7.125a1.565 1.565 0 0 1 1.146-.492h32.085a.794.794 0 0 1 .436.12c.13.082.234.2.296.338a.754.754 0 0 1-.148.84zm-6.768-14.351a1.583 1.583 0 0 0-1.146-.492H52.786a.797.797 0 0 0-.43.127.76.76 0 0 0-.146 1.171l6.76 7.129a1.581 1.581 0 0 0 1.146.49h32.085a.798.798 0 0 0 .43-.127.776.776 0 0 0 .288-.337.757.757 0 0 0-.145-.833l-6.757-7.128zm-33.23-5.12H84.87a1.59 1.59 0 0 0 1.146-.49l6.768-7.125a.764.764 0 0 0 .148-.84.772.772 0 0 0-.296-.338.794.794 0 0 0-.436-.12H60.116a1.59 1.59 0 0 0-1.146.491l-6.76 7.125a.767.767 0 0 0-.144.834.776.776 0 0 0 .29.338.797.797 0 0 0 .43.126zm79.455 6.287h-17.426v-5.6h21.954V44h-22.012a5.852 5.852 0 0 0-2.194.414 5.737 5.737 0 0 0-1.865 1.202 5.585 5.585 0 0 0-1.251 1.806 5.468 5.468 0 0 0-.448 2.136v5.676c.003.735.154 1.461.446 2.139a5.585 5.585 0 0 0 1.25 1.809c.535.517 1.17.926 1.866 1.203a5.851 5.851 0 0 0 2.196.415h17.449v5.6h-22.792V72h22.827a5.85 5.85 0 0 0 2.193-.414 5.728 5.728 0 0 0 1.865-1.202c.535-.516.96-1.13 1.252-1.806a5.481 5.481 0 0 0 .448-2.136v-5.676a5.476 5.476 0 0 0-.446-2.139 5.583 5.583 0 0 0-1.25-1.809 5.74 5.74 0 0 0-1.866-1.203 5.853 5.853 0 0 0-2.196-.415zM165.246 44H147.77a5.847 5.847 0 0 0-2.197.41 5.737 5.737 0 0 0-1.869 1.2 5.585 5.585 0 0 0-1.254 1.809 5.458 5.458 0 0 0-.449 2.14V66.44c.003.736.156 1.463.449 2.14a5.585 5.585 0 0 0 1.254 1.809 5.736 5.736 0 0 0 1.869 1.2 5.848 5.848 0 0 0 2.197.41h17.477a5.85 5.85 0 0 0 2.193-.414 5.742 5.742 0 0 0 1.863-1.202c.534-.516.96-1.13 1.25-1.806A5.47 5.47 0 0 0 171 66.44V49.56a5.47 5.47 0 0 0-.448-2.137 5.574 5.574 0 0 0-1.25-1.806 5.742 5.742 0 0 0-1.863-1.202 5.848 5.848 0 0 0-2.193-.414zm-.042 22.4h-17.392V49.6h17.384l.008 16.8zM226.328 44h-16.694a5.616 5.616 0 0 0-3.971 1.616A5.568 5.568 0 0 0 204 49.559V72h5.691v-9.198h16.618V72H232V49.559a5.57 5.57 0 0 0-1.676-3.957A5.597 5.597 0 0 0 226.328 44zm-.041 13.202h-16.62V49.6h16.62v7.602zM293.358 44h-16.716a5.632 5.632 0 0 0-3.977 1.616A5.562 5.562 0 0 0 271 49.559V72h5.699v-9.198H293.3V72h5.7V49.558a5.578 5.578 0 0 0-1.666-3.942A5.63 5.63 0 0 0 293.358 44zm-.058 13.202h-16.64V49.6h16.64v7.602zM260.176 66.4h-2.324l-8.31-20.054a3.756 3.756 0 0 0-1.408-1.703 3.897 3.897 0 0 0-2.141-.643h-5.157c-.501-.002-.998.092-1.462.276a3.824 3.824 0 0 0-1.242.802c-.357.345-.64.754-.834 1.205a3.66 3.66 0 0 0-.298 1.425V72h5.811V49.6h2.325l8.307 20.054c.29.69.783 1.281 1.419 1.696a3.906 3.906 0 0 0 2.145.635h5.157c.501.002.998-.092 1.462-.277a3.823 3.823 0 0 0 1.242-.801c.357-.345.64-.754.834-1.205a3.66 3.66 0 0 0 .298-1.425V44h-5.824v22.4zM181.76 44H176v22.441a5.52 5.52 0 0 0 .445 2.141c.29.678.713 1.293 1.244 1.81a5.69 5.69 0 0 0 1.854 1.2 5.746 5.746 0 0 0 2.178.408H199v-5.6h-17.24V44z" />
        </g>
    </symbol>
</svg>