<svg width="38" height="34" viewBox="0 0 38 34" xmlns="http://www.w3.org/2000/svg">
    <g fill="#E84142" fill-rule="evenodd">
        <path d="M9.932 33.734h-6.21c-1.305 0-1.95 0-2.343-.251a1.578 1.578 0 0 1-.715-1.234c-.024-.464.299-1.03.943-2.162L16.941 3.058c.653-1.147.983-1.721 1.4-1.933a1.582 1.582 0 0 1 1.43 0c.417.212.747.786 1.4 1.933l3.152 5.503.016.028c.705 1.232 1.062 1.856 1.218 2.511.173.716.173 1.47 0 2.186-.157.66-.511 1.29-1.226 2.539l-8.055 14.238-.02.037c-.71 1.241-1.07 1.87-1.568 2.345a4.688 4.688 0 0 1-1.91 1.109c-.653.18-1.384.18-2.846.18zM25.615 33.734h8.899c1.313 0 1.973 0 2.366-.259.425-.275.692-.739.716-1.242.022-.448-.293-.993-.91-2.059l-.065-.11-4.458-7.626-.05-.086c-.627-1.059-.943-1.594-1.349-1.8a1.565 1.565 0 0 0-1.423 0c-.408.212-.739.77-1.391 1.894l-4.442 7.625-.015.027c-.65 1.122-.975 1.683-.952 2.143.032.503.291.967.716 1.242.385.251 1.045.251 2.358.251z"/>
    </g>
</svg>
