<svg width="64" height="64" viewBox="0 0 64 64" xmlns="http://www.w3.org/2000/svg">
    <g fill="none" fill-rule="evenodd">
        <path d="M0 0h64v64H0z"/>
        <rect x="5.333" y="5.333" width="53.333" height="53.333" rx="10"/>
        <path d="m39.253 34.975 4.221 4.217-.002.002L32 50.667 20.525 39.192l4.225-4.213 7.25 7.25 7.253-7.254zM32 27.717l4.28 4.28h-.001l.004.003L32 36.283 27.717 32 32 27.717zm14.448.066L50.667 32l-4.22 4.22L42.23 32l4.22-4.218zm-28.896-.002 4.219 4.218-4.22 4.219-4.218-4.219 4.22-4.218zM32 13.333l11.472 11.473-4.219 4.219L32 21.77l-7.25 7.25-4.219-4.219L32 13.333z" fill="#F3BA2F" fill-rule="nonzero"/>
    </g>
</svg>
