<svg width="64" height="64" viewBox="0 0 64 64" xmlns="http://www.w3.org/2000/svg">
    <g fill="none" fill-rule="evenodd">
        <path d="M0 0h64v64H0z"/>
        <path d="M57.862 38.451c-3.561 14.286-18.03 22.98-32.318 19.417C11.263 54.307 2.57 39.837 6.132 25.552 9.692 11.265 24.161 2.57 38.444 6.132c14.287 3.561 22.98 18.032 19.418 32.319z"/>
        <path d="M43.75 28.201c.53-3.548-2.17-5.456-5.865-6.728l1.198-4.807-2.925-.729-1.167 4.68c-.77-.192-1.56-.372-2.344-.552l1.175-4.71-2.924-.73-1.2 4.805a97.879 97.879 0 0 1-1.868-.439l.003-.015L23.8 17.97l-.779 3.125s2.171.497 2.125.528c1.185.296 1.4 1.08 1.364 1.702L23.225 36.49c-.145.36-.512.9-1.34.695.029.043-2.127-.53-2.127-.53l-1.453 3.348 3.808.95c.708.177 1.402.363 2.086.538l-1.211 4.861 2.922.73 1.2-4.81c.798.216 1.573.416 2.331.605l-1.195 4.787 2.926.73 1.21-4.853c4.99.944 8.741.563 10.32-3.95 1.273-3.633-.063-5.728-2.688-7.095 1.912-.44 3.352-1.698 3.736-4.296zm-6.685 9.374c-.904 3.633-7.022 1.67-9.005 1.177l1.607-6.44c1.983.494 8.343 1.474 7.398 5.263zm.905-9.426c-.825 3.305-5.917 1.625-7.568 1.214l1.456-5.842c1.652.412 6.971 1.18 6.112 4.628z" fill="#F7931A" fill-rule="nonzero"/>
    </g>
</svg>
