<svg width="42" height="42" viewBox="0 0 42 42" xmlns="http://www.w3.org/2000/svg">
    <g fill-rule="nonzero" fill="none">
        <circle fill="#FF0420" cx="21" cy="21" r="21"/>
        <path d="M14.876 26.578c-1.251 0-2.276-.294-3.074-.882-.79-.597-1.184-1.454-1.184-2.554 0-.235.025-.512.075-.848.135-.756.328-1.664.58-2.73.714-2.89 2.562-4.335 5.535-4.335.807 0 1.538.135 2.176.412.638.26 1.142.663 1.512 1.201.37.53.554 1.16.554 1.89 0 .218-.025.496-.075.832-.16.932-.345 1.848-.571 2.73-.37 1.436-1 2.52-1.907 3.234-.899.705-2.109 1.05-3.62 1.05zm.227-2.268c.588 0 1.084-.177 1.495-.521.42-.345.723-.874.9-1.596.243-.991.428-1.848.554-2.587.042-.219.067-.446.067-.68 0-.958-.496-1.437-1.495-1.437-.588 0-1.092.176-1.512.52-.412.345-.706.874-.882 1.597a33.752 33.752 0 0 0-.572 2.587c-.042.21-.067.428-.067.663-.008.975.504 1.454 1.512 1.454zM21.781 26.426c-.117 0-.201-.033-.269-.109-.05-.084-.067-.176-.05-.285l2.176-10.248a.419.419 0 0 1 .176-.286.463.463 0 0 1 .302-.11h4.192c1.168 0 2.1.244 2.806.723.714.487 1.075 1.185 1.075 2.1 0 .26-.034.538-.093.823-.26 1.21-.79 2.1-1.596 2.68-.79.58-1.873.865-3.25.865h-2.126l-.722 3.453a.451.451 0 0 1-.176.285.463.463 0 0 1-.303.11h-2.142zm5.578-6.022c.445 0 .823-.118 1.15-.362.337-.243.555-.588.664-1.041a2.57 2.57 0 0 0 .05-.47c0-.303-.092-.538-.268-.698-.177-.168-.487-.252-.916-.252h-1.89l-.596 2.823h1.806z" fill="#FFF"/>
    </g>
</svg>
