<svg width="38" height="34" viewBox="0 0 38 34" xmlns="http://www.w3.org/2000/svg">
    <path d="M28.773 10.392c-.695-.404-1.588-.404-2.381 0l-5.556 3.33-3.77 2.118-5.458 3.33c-.694.403-1.587.403-2.38 0L4.96 16.545c-.695-.404-1.19-1.21-1.19-2.119V9.383c0-.807.396-1.614 1.19-2.119l4.266-2.522c.695-.404 1.588-.404 2.381 0l4.267 2.623c.694.404 1.19 1.21 1.19 2.119v3.33l3.77-2.22v-3.43c0-.808-.396-1.615-1.19-2.12L11.708.304c-.695-.404-1.588-.404-2.382 0L1.191 5.145C.397 5.55 0 6.356 0 7.163v9.484c0 .807.397 1.614 1.19 2.119l8.037 4.741c.695.404 1.588.404 2.381 0l5.457-3.228 3.77-2.22 5.457-3.228c.695-.404 1.588-.404 2.382 0l4.266 2.522c.694.404 1.19 1.21 1.19 2.119v5.044c0 .807-.396 1.615-1.19 2.119l-4.167 2.522c-.695.404-1.588.404-2.381 0l-4.267-2.522c-.694-.404-1.19-1.21-1.19-2.119v-3.228l-3.77 2.22v3.329c0 .807.396 1.614 1.19 2.118l8.037 4.742c.694.404 1.587.404 2.38 0l8.037-4.742c.695-.403 1.191-1.21 1.191-2.118v-9.585c0-.807-.397-1.614-1.19-2.118l-8.037-4.742z" fill="#8247E5" fill-rule="nonzero"/>
</svg>
