<!-- Generated by IcoMoon.io -->
<svg version="1.1"
	xmlns="http://www.w3.org/2000/svg" width="1577" height="1024" viewBox="0 0 1577 1024">

	<path fill="#21bdd2" d="M661.975 18.207l-603.926 192.617c-33.081 10.562-25.966 62.788 8.546 62.788h1005.040c3.594 0 7.188-0.734 10.6-2.090l475.381-192.579c31.138-12.616 22.702-62.054-10.6-62.054h-876.531c-0.009 0-0.018 0-0.029 0-3.043 0-5.972 0.484-8.716 1.377l0.199-0.056z"></path>
	<path fill="#19daeb" d="M625.3 384.956l-603.89 192.617c-33.081 10.562-25.966 62.788 8.546 62.788h1005.002c3.823-0.009 7.466-0.775 10.786-2.16l-0.186 0.070 475.381-192.579c31.1-12.616 22.666-62.054-10.635-62.054h-876.531c-0.011 0-0.021 0-0.034 0-3.041 0-5.967 0.484-8.71 1.377l0.199-0.056z"></path>
	<path fill="#089fac" d="M625.3 751.705l-603.89 192.617c-33.081 10.562-25.966 62.788 8.546 62.788h1005.002c3.823-0.009 7.466-0.775 10.786-2.16l-0.186 0.070 475.381-192.579c31.1-12.616 22.666-62.054-10.635-62.054h-876.531c-0.016 0-0.038 0-0.057 0-3.032 0-5.953 0.484-8.685 1.377l0.197-0.056z"></path>
</svg>
